<svg width="335" height="18" viewBox="0 0 335 18" fill="none" xmlns="http://www.w3.org/2000/svg">
<g clip-path="url(#clip0_10765_23974)">
<path d="M333.67 0.669922H299.67C299.405 0.669922 299.15 0.775279 298.963 0.962815C298.775 1.15035 298.67 1.40471 298.67 1.66992V16.3299C298.67 16.5951 298.775 16.8495 298.963 17.037C299.15 17.2246 299.405 17.3299 299.67 17.3299H333.67C333.935 17.3299 334.189 17.2246 334.377 17.037C334.565 16.8495 334.67 16.5951 334.67 16.3299V1.66992C334.67 1.40471 334.565 1.15035 334.377 0.962815C334.189 0.775279 333.935 0.669922 333.67 0.669922Z" fill="white" stroke="#E0E0E0" stroke-width="0.67"/>
<path d="M312.47 7.18981C312.451 7.49543 312.315 7.78196 312.09 7.9898C311.842 8.19127 311.529 8.2945 311.21 8.2798C310.974 8.28478 310.742 8.22233 310.54 8.09981C310.345 7.97115 310.189 7.79122 310.09 7.57981C309.978 7.33507 309.92 7.06901 309.92 6.79981V6.50981C309.918 6.23498 309.972 5.96265 310.08 5.70981C310.184 5.49211 310.349 5.30923 310.555 5.18324C310.761 5.05725 310.999 4.99354 311.24 4.99981C311.55 4.98588 311.853 5.08946 312.09 5.28981C312.316 5.50072 312.452 5.79091 312.47 6.09981H311.91C311.906 5.9145 311.835 5.73697 311.71 5.59981C311.579 5.49093 311.41 5.43717 311.24 5.44981C311.131 5.44445 311.023 5.46635 310.926 5.51351C310.828 5.56068 310.743 5.6316 310.68 5.71981C310.537 5.95031 310.467 6.21881 310.48 6.4898V6.77981C310.467 7.05581 310.533 7.32976 310.67 7.56981C310.729 7.65779 310.81 7.72896 310.904 7.7763C310.999 7.82364 311.104 7.84552 311.21 7.83981C311.387 7.85562 311.562 7.80179 311.7 7.68981C311.83 7.55936 311.905 7.38399 311.91 7.19981L312.47 7.18981ZM314.76 7.4898H313.52L313.26 8.2298H312.68L313.89 4.99981H314.39L315.6 8.19981H315L314.76 7.4898ZM313.67 6.99981H314.6L314.14 5.66981L313.67 6.99981ZM317.67 7.36981C317.671 7.3072 317.657 7.24523 317.631 7.18823C317.606 7.13123 317.567 7.08057 317.52 7.03981C317.352 6.938 317.17 6.86056 316.98 6.80981C316.764 6.75665 316.558 6.66884 316.37 6.54981C316.24 6.48174 316.13 6.37993 316.053 6.25503C315.975 6.13013 315.933 5.98672 315.93 5.83981C315.927 5.71619 315.954 5.5937 316.008 5.48242C316.062 5.37115 316.141 5.27428 316.24 5.19981C316.466 5.05446 316.732 4.98444 317 4.99981C317.206 4.99605 317.411 5.03698 317.6 5.11981C317.766 5.19674 317.908 5.31781 318.01 5.46981C318.109 5.62134 318.161 5.79875 318.16 5.97981H317.61C317.613 5.90707 317.601 5.83448 317.573 5.76712C317.545 5.69976 317.503 5.63924 317.45 5.58981C317.325 5.48401 317.164 5.43032 317 5.43981C316.85 5.43097 316.702 5.47329 316.58 5.55981C316.53 5.59861 316.489 5.64864 316.461 5.70592C316.433 5.7632 316.419 5.82615 316.42 5.88981C316.423 5.94833 316.439 6.00533 316.469 6.05587C316.499 6.1064 316.54 6.14895 316.59 6.17981C316.755 6.28172 316.933 6.35919 317.12 6.40981C317.33 6.46623 317.532 6.5503 317.72 6.65981C317.861 6.73746 317.978 6.85141 318.06 6.9898C318.13 7.11836 318.165 7.26339 318.16 7.40981C318.164 7.53367 318.138 7.65675 318.084 7.7683C318.03 7.87985 317.95 7.97649 317.85 8.04981C317.609 8.22209 317.316 8.30677 317.02 8.28981C316.8 8.28824 316.583 8.24409 316.38 8.15981C316.202 8.07957 316.047 7.95575 315.93 7.79981C315.821 7.64868 315.765 7.46599 315.77 7.27981H316.33C316.326 7.3589 316.34 7.43785 316.371 7.51064C316.403 7.58342 316.45 7.64813 316.51 7.69981C316.657 7.80798 316.838 7.86107 317.02 7.84981C317.176 7.86165 317.331 7.81926 317.46 7.72981C317.515 7.69674 317.561 7.64983 317.592 7.59371C317.624 7.53758 317.64 7.4742 317.64 7.40981L317.67 7.36981ZM321.25 8.1898H320.7V6.80981H319.26V8.2298H318.71V4.99981H319.26V6.36981H320.7V4.99981H321.25V8.1898ZM325.58 6.67981C325.588 6.9616 325.533 7.24163 325.42 7.49981C325.323 7.72678 325.159 7.91869 324.95 8.04981C324.741 8.17394 324.503 8.23946 324.26 8.23946C324.017 8.23946 323.779 8.17394 323.57 8.04981C323.364 7.91993 323.2 7.7321 323.1 7.50981C322.98 7.25364 322.921 6.9727 322.93 6.68981V6.54981C322.923 6.2681 322.978 5.98827 323.09 5.72981C323.19 5.50478 323.353 5.31369 323.56 5.17981C323.714 5.0798 323.888 5.01416 324.07 4.98734C324.252 4.96052 324.437 4.97316 324.613 5.02439C324.79 5.07562 324.953 5.16425 325.092 5.28425C325.232 5.40424 325.343 5.55279 325.42 5.71981C325.528 5.97942 325.583 6.25844 325.58 6.53981V6.67981ZM325 6.54981C325.018 6.26122 324.944 5.97439 324.79 5.72981C324.727 5.64042 324.643 5.56805 324.545 5.51918C324.448 5.4703 324.339 5.44647 324.23 5.44981C324.119 5.44657 324.01 5.47038 323.91 5.51918C323.811 5.56797 323.725 5.64027 323.66 5.72981C323.512 5.96948 323.438 6.24814 323.45 6.52981V6.71981C323.432 7.00523 323.506 7.28886 323.66 7.52981C323.724 7.62118 323.809 7.69542 323.909 7.746C324.008 7.79657 324.118 7.82192 324.23 7.81981C324.341 7.82578 324.452 7.80318 324.551 7.75415C324.651 7.70513 324.737 7.63133 324.8 7.53981C324.947 7.29258 325.017 7.00698 325 6.71981V6.54981ZM328.64 8.2298H328.09L326.66 5.99981V8.2298H326.11V4.99981H326.66L328.09 7.27981V4.99981H328.64V8.2298ZM310.03 13.2298V9.99981H311C311.262 9.99872 311.52 10.0641 311.75 10.1898C311.968 10.3177 312.145 10.505 312.26 10.7298C312.383 10.9748 312.445 11.2458 312.44 11.5198V11.6798C312.447 11.9572 312.385 12.232 312.26 12.4798C312.144 12.7073 311.963 12.8953 311.74 13.0198C311.506 13.1425 311.244 13.2044 310.98 13.1998L310.03 13.2298ZM310.58 10.4798V12.7898H311C311.123 12.7981 311.247 12.7781 311.361 12.7313C311.476 12.6845 311.578 12.6122 311.66 12.5198C311.832 12.294 311.918 12.0134 311.9 11.7298V11.5498C311.922 11.2688 311.844 10.9891 311.68 10.7598C311.6 10.6644 311.498 10.5893 311.384 10.5406C311.269 10.492 311.144 10.4711 311.02 10.4798H310.58ZM314.84 11.7998H313.52V12.7998H315.06V13.2398H313V9.99981H315V10.4498H313.48V11.3398H314.8L314.84 11.7998ZM316.07 12.7998H317.52V13.2398H315.52V9.99981H316.08L316.07 12.7998ZM318.53 13.2398H318V9.99981H318.55L318.53 13.2398ZM320.34 12.5498L321.15 10.0398H321.77L320.61 13.2398H320.08L318.93 9.99981H319.54L320.34 12.5498ZM324 11.7998H322.68V12.7998H324.22V13.2398H322.13V9.99981H324.2V10.4498H322.68V11.3398H324V11.7998ZM325.85 11.9998H325.23V13.2298H324.67V9.99981H325.8C326.104 9.98272 326.404 10.071 326.65 10.2498C326.751 10.3392 326.831 10.4504 326.883 10.5752C326.935 10.6999 326.958 10.8349 326.95 10.9698C326.952 11.1604 326.9 11.3478 326.8 11.5098C326.69 11.6573 326.541 11.7715 326.37 11.8398L327.09 13.1698H326.49L325.85 11.9998ZM325.23 11.5498H325.8C325.959 11.5626 326.117 11.5123 326.24 11.4098C326.295 11.3617 326.338 11.3015 326.366 11.2337C326.394 11.166 326.406 11.0928 326.4 11.0198C326.405 10.9478 326.394 10.8757 326.368 10.8084C326.342 10.7411 326.302 10.6801 326.25 10.6298C326.192 10.5771 326.124 10.5366 326.05 10.5108C325.976 10.4851 325.898 10.4745 325.82 10.4798H325.23V11.5498ZM328.42 11.5498L329.16 10.0298H329.77L328.7 12.0298V13.1998H328.14V12.0598L327.07 10.0598H327.68L328.42 11.5498Z" fill="#4E4E4E"/>
<path d="M303.45 8.12937L303.27 8.62937H305.86C305.805 8.93014 305.637 9.1984 305.39 9.37937C304.943 9.66086 304.418 9.79385 303.89 9.75938H303.35V10.3294C303.594 10.3282 303.834 10.3977 304.04 10.5294C304.246 10.6824 304.425 10.8682 304.57 11.0794L306.36 13.4994H307.48L305.39 10.8094C305.242 10.5885 305.064 10.3898 304.86 10.2194C305.346 10.1528 305.802 9.9441 306.17 9.61937C306.453 9.35812 306.631 9.0025 306.67 8.61937H307.82L307.98 8.11937H306.68C306.661 7.87357 306.59 7.63452 306.473 7.41755C306.356 7.20057 306.195 7.01046 306 6.85938H307.79L307.97 6.35938H303.41L303.25 6.85938H304.16C304.604 6.83097 305.043 6.97011 305.39 7.24937C305.638 7.47854 305.792 7.79255 305.82 8.12937H303.45Z" fill="#212121"/>
<path d="M292.33 0.669922H258.33C258.065 0.669922 257.811 0.775279 257.623 0.962815C257.435 1.15035 257.33 1.40471 257.33 1.66992V16.3299C257.33 16.5951 257.435 16.8495 257.623 17.037C257.811 17.2246 258.065 17.3299 258.33 17.3299H292.33C292.595 17.3299 292.85 17.2246 293.037 17.037C293.225 16.8495 293.33 16.5951 293.33 16.3299V1.66992C293.33 1.40471 293.225 1.15035 293.037 0.962815C292.85 0.775279 292.595 0.669922 292.33 0.669922Z" fill="white" stroke="#E0E0E0" stroke-width="0.67"/>
<path d="M272.86 7.9998H272.31L270.88 5.7298V7.9998H270.33V4.7998H270.88L272.31 7.0798V4.7998H272.86V7.9998ZM275.39 6.5698H274.08V7.5698H275.61V7.9998H273.52V4.7998H275.6V5.2498H274.08V6.1298H275.39V6.5698ZM278.39 5.2498H277.39V7.9998H276.84V5.2498H275.84V4.7998H278.38L278.39 5.2498ZM270.33 12.9998V9.7998H271.42C271.714 9.77859 272.006 9.85602 272.25 10.0198C272.346 10.0973 272.422 10.197 272.47 10.3102C272.519 10.4235 272.54 10.5469 272.53 10.6698C272.53 10.8089 272.488 10.9449 272.41 11.0598C272.328 11.1831 272.209 11.2775 272.07 11.3298C272.228 11.3709 272.366 11.4665 272.46 11.5998C272.563 11.7343 272.616 11.9005 272.61 12.0698C272.618 12.1993 272.595 12.3288 272.545 12.4484C272.495 12.568 272.418 12.6746 272.32 12.7598C272.08 12.9351 271.786 13.0201 271.49 12.9998H270.33ZM270.88 11.5598V12.5598H271.5C271.648 12.5643 271.792 12.5184 271.91 12.4298C271.959 12.384 271.996 12.3279 272.021 12.2656C272.045 12.2033 272.055 12.1364 272.05 12.0698C272.062 12.0011 272.057 11.9305 272.037 11.8639C272.016 11.7973 271.98 11.7365 271.931 11.6867C271.882 11.6369 271.822 11.5994 271.756 11.5774C271.69 11.5553 271.619 11.5493 271.55 11.5598H270.88ZM270.88 11.1498H271.43C271.573 11.1573 271.715 11.1149 271.83 11.0298C271.879 10.9905 271.919 10.9401 271.945 10.8828C271.971 10.8254 271.983 10.7627 271.98 10.6998C271.986 10.6346 271.976 10.569 271.952 10.5082C271.927 10.4474 271.889 10.3932 271.84 10.3498C271.714 10.2724 271.567 10.2374 271.42 10.2498H270.88V11.1498ZM275 12.2598H273.77L273.51 12.9998H272.93L274.14 9.7998H274.64L275.8 12.9998H275.22L275 12.2598ZM273.92 11.8098H274.85L274.38 10.4798L273.92 11.8098ZM278.7 12.9998H278.14L276.72 10.7298V12.9998H276.16V9.7998H276.72L278.15 12.0798V9.7998H278.7V12.9998ZM280.27 11.6198L279.91 11.9998V12.9998H279.36V9.7998H279.91V11.2998L280.22 10.9198L281.16 9.7998H281.83L280.64 11.2198L281.9 12.9998H281.24L280.27 11.6198ZM282.78 12.9998H282.23V9.7998H282.78V12.9998ZM286 12.9998H285.45L284 10.7298V12.9998H283.44V9.7998H284L285.43 12.0798V9.7998H286V12.9998ZM289.11 12.5798C288.989 12.7424 288.822 12.8645 288.63 12.9298C288.406 13.0098 288.168 13.0471 287.93 13.0398C287.682 13.0444 287.436 12.9822 287.22 12.8598C287.009 12.7412 286.841 12.5593 286.74 12.3398C286.624 12.0928 286.566 11.8226 286.57 11.5498V11.2998C286.541 10.8926 286.666 10.4894 286.92 10.1698C287.042 10.0261 287.196 9.91379 287.37 9.84242C287.544 9.77104 287.733 9.74271 287.92 9.7598C288.226 9.7394 288.528 9.83192 288.77 10.0198C288.99 10.2147 289.126 10.487 289.15 10.7798H288.61C288.604 10.697 288.581 10.6162 288.544 10.5422C288.506 10.4681 288.454 10.4022 288.391 10.3483C288.328 10.2944 288.254 10.2536 288.175 10.2281C288.096 10.2026 288.013 10.193 287.93 10.1998C287.822 10.1944 287.714 10.2163 287.616 10.2635C287.518 10.3107 287.433 10.3816 287.37 10.4698C287.224 10.7066 287.151 10.9815 287.16 11.2598V11.5098C287.146 11.7931 287.223 12.0734 287.38 12.3098C287.451 12.4031 287.544 12.478 287.65 12.5285C287.756 12.5789 287.873 12.6033 287.99 12.5998C288.099 12.6117 288.21 12.601 288.315 12.5683C288.42 12.5357 288.517 12.4817 288.6 12.4098V11.7798H287.94V11.3598H289.15L289.11 12.5798Z" fill="#4E4E4E"/>
<path d="M263.83 4C264.086 4.01284 264.328 4.12384 264.505 4.31C264.682 4.49616 264.78 4.74322 264.78 5V6C265.393 6.06008 265.962 6.34828 266.373 6.80754C266.784 7.2668 267.008 7.86366 267 8.48V11.08C267 11.3978 266.937 11.7125 266.816 12.0061C266.694 12.2997 266.516 12.5665 266.291 12.7912C266.067 13.0159 265.8 13.1942 265.506 13.3158C265.213 13.4374 264.898 13.5 264.58 13.5C264.262 13.5 263.948 13.4374 263.654 13.3158C263.36 13.1942 263.094 13.0159 262.869 12.7912C262.644 12.5665 262.466 12.2997 262.344 12.0061C262.223 11.7125 262.16 11.3978 262.16 11.08V8.48C262.152 7.86678 262.373 7.27253 262.78 6.81375C263.187 6.35498 263.75 6.06476 264.36 6V5C264.375 4.93418 264.375 4.86582 264.36 4.8C264.339 4.73162 264.301 4.66966 264.25 4.62C264.202 4.57089 264.144 4.53328 264.08 4.51C264.011 4.49626 263.939 4.49626 263.87 4.51C263.799 4.50995 263.728 4.52429 263.662 4.55217C263.597 4.58005 263.537 4.62088 263.488 4.67224C263.439 4.72359 263.4 4.7844 263.374 4.85103C263.349 4.91766 263.337 4.98873 263.34 5.06V5.28C263.34 5.53678 263.242 5.78384 263.065 5.97C262.888 6.15616 262.646 6.26716 262.39 6.28C262.135 6.26469 261.896 6.15261 261.721 5.96671C261.547 5.78081 261.45 5.53514 261.45 5.28C261.441 5.24387 261.441 5.20613 261.45 5.17C261.468 5.13619 261.496 5.10841 261.53 5.09C261.563 5.08107 261.597 5.08107 261.63 5.09C261.666 5.07972 261.704 5.07972 261.74 5.09C261.771 5.11115 261.796 5.13951 261.814 5.17262C261.831 5.20572 261.84 5.24259 261.84 5.28C261.83 5.35502 261.835 5.4314 261.857 5.50398C261.879 5.57656 261.916 5.64367 261.965 5.70077C262.015 5.75788 262.077 5.80366 262.145 5.83503C262.214 5.8664 262.289 5.88263 262.365 5.88263C262.441 5.88263 262.516 5.8664 262.585 5.83503C262.653 5.80366 262.715 5.75788 262.765 5.70077C262.814 5.64367 262.851 5.57656 262.873 5.50398C262.895 5.4314 262.9 5.35502 262.89 5.28V5C262.89 4.74486 262.987 4.49919 263.161 4.31329C263.336 4.12739 263.575 4.01531 263.83 4ZM264.57 7C264.531 6.98833 264.489 6.98833 264.45 7C264.41 7.01732 264.373 7.04095 264.34 7.07C264.313 7.10091 264.29 7.13441 264.27 7.17C264.265 7.2132 264.265 7.2568 264.27 7.3V8.48C264.269 8.52286 264.276 8.56555 264.291 8.60553C264.307 8.64552 264.33 8.68198 264.36 8.71277C264.39 8.74355 264.426 8.76802 264.465 8.78472C264.505 8.80142 264.547 8.81002 264.59 8.81H264.71L264.81 8.74C264.842 8.70987 264.866 8.67202 264.88 8.63C264.89 8.59059 264.89 8.54941 264.88 8.51V7.4C264.89 7.35719 264.89 7.31281 264.88 7.27C264.864 7.23222 264.84 7.19818 264.81 7.17L264.71 7.1C264.671 7.091 264.63 7.091 264.59 7.1L264.57 7Z" fill="black"/>
<path d="M251.67 0.669922H221.67C221.405 0.669922 221.15 0.775279 220.963 0.962815C220.775 1.15035 220.67 1.40471 220.67 1.66992V16.3299C220.67 16.5951 220.775 16.8495 220.963 17.037C221.15 17.2246 221.405 17.3299 221.67 17.3299H251.67C251.935 17.3299 252.189 17.2246 252.377 17.037C252.565 16.8495 252.67 16.5951 252.67 16.3299V1.66992C252.67 1.40471 252.565 1.15035 252.377 0.962815C252.189 0.775279 251.935 0.669922 251.67 0.669922Z" fill="white" stroke="#E0E0E0" stroke-width="0.67"/>
<path opacity="0.94" fill-rule="evenodd" clip-rule="evenodd" d="M225.34 10.6406C225.34 10.6406 225.48 10.0206 225.86 8.64062C226.16 7.57062 226.45 6.57062 226.49 6.42062L226.58 6.14062H227.77C229.16 6.14062 229.37 6.14063 229.6 6.29063C229.99 6.49063 230.1 6.80063 229.97 7.29063C229.86 7.73033 229.584 8.11032 229.2 8.35062C229.12 8.41062 229.04 8.48063 229.04 8.50063C229.04 8.52063 229.04 8.60062 229.17 8.68062C229.242 8.73918 229.303 8.81033 229.35 8.89062C229.42 9.14253 229.42 9.40872 229.35 9.66062C229.301 9.87126 229.268 10.0852 229.25 10.3006V10.5706H228.67C228.467 10.5958 228.262 10.5958 228.06 10.5706C228 10.5106 228.01 10.3706 228.06 9.96063C228.11 9.55063 228.17 9.34062 228.06 9.23062C227.95 9.12062 227.84 9.05063 227.42 9.04063C227 9.03063 227.03 9.04063 226.98 9.04063C226.93 9.04063 226.83 9.29062 226.64 9.98062L226.48 10.5606H226C225.797 10.5721 225.593 10.5721 225.39 10.5606L225.34 10.6406ZM228.34 8.12063C228.62 8.04062 228.73 7.87062 228.73 7.53062C228.749 7.45859 228.749 7.38266 228.73 7.31063C228.65 7.22063 228.4 7.18063 227.93 7.21063H227.52L227.46 7.41062C227.385 7.62425 227.335 7.84566 227.31 8.07062C227.31 8.12062 227.31 8.14062 227.43 8.16062C227.764 8.18358 228.1 8.16341 228.43 8.10062L228.34 8.12063ZM230.27 10.7306C230.105 10.6751 229.968 10.5565 229.89 10.4006C229.77 10.1406 229.89 9.55063 230.3 8.13063C230.4 7.79063 230.48 7.51063 230.48 7.50063C230.48 7.50063 230.61 7.50063 230.97 7.50063C231.136 7.48365 231.304 7.48365 231.47 7.50063H231.55L231.47 7.76062C231.29 8.40062 231.1 9.17063 231.07 9.42063C231.04 9.67063 231.07 9.70062 231.07 9.77062C231.07 9.84062 231.45 9.97063 231.7 9.84063C231.95 9.71063 232.04 9.57062 232.52 7.95062C232.546 7.80025 232.604 7.65716 232.69 7.53062L232.78 7.44062H233.25C233.61 7.44062 233.72 7.44062 233.73 7.44062C233.74 7.44062 233.15 9.66063 232.9 10.5106V10.6506H231.9C231.911 10.5991 231.928 10.5488 231.95 10.5006C232.05 10.2206 231.95 10.2006 231.55 10.5006C231.316 10.6951 231.024 10.8044 230.72 10.8106C230.575 10.84 230.425 10.84 230.28 10.8106L230.27 10.7306ZM233.62 10.6406C233.764 9.88532 233.958 9.14037 234.2 8.41062L234.83 6.20062H235.83C237.14 6.20062 237.41 6.20062 237.66 6.36062C237.834 6.42959 237.979 6.55681 238.07 6.72062C238.147 6.8937 238.187 7.08111 238.187 7.27063C238.187 7.46015 238.147 7.64754 238.07 7.82062C237.976 8.13622 237.805 8.42368 237.573 8.65743C237.341 8.8912 237.055 9.06404 236.74 9.16062C236.512 9.19845 236.281 9.22182 236.05 9.23062C235.12 9.29062 235.18 9.23062 235.13 9.40062C235.08 9.57062 235.01 9.77063 234.92 10.0806L234.76 10.6506H234.18C233.98 10.6619 233.78 10.6619 233.58 10.6506L233.62 10.6406ZM236.33 8.26063C236.445 8.26035 236.559 8.22971 236.659 8.1718C236.759 8.11389 236.842 8.03073 236.9 7.93062C236.952 7.84985 236.984 7.75812 236.995 7.66268C237.005 7.56724 236.993 7.47068 236.96 7.38062C236.87 7.24062 236.74 7.21063 236.25 7.21063C236.09 7.19674 235.93 7.19674 235.77 7.21063C235.667 7.51781 235.587 7.83194 235.53 8.15062C235.522 8.18007 235.522 8.21116 235.53 8.24062C235.789 8.27055 236.051 8.27055 236.31 8.24062L236.33 8.26063ZM238.04 10.7406C237.69 10.5906 237.6 10.3506 237.71 9.87063C237.88 9.19062 238.23 8.97062 239.45 8.77062C240.19 8.64062 240.37 8.55063 240.45 8.29063C240.53 8.03063 240.33 8.00063 240 8.00063C239.909 7.99304 239.818 8.00619 239.733 8.03911C239.648 8.07203 239.572 8.12384 239.51 8.19062L239.36 8.31062H239C238.55 8.31062 238.41 8.31062 238.41 8.24062C238.483 8.05585 238.6 7.89129 238.75 7.76062C238.943 7.59506 239.172 7.47843 239.42 7.42062C240.003 7.26767 240.616 7.26767 241.2 7.42062C241.364 7.49271 241.5 7.61536 241.59 7.77063C241.66 7.90063 241.64 8.03062 241.31 9.28062C241.16 9.90062 241.03 10.4506 241.03 10.5206V10.6306H240.66H240.15H240.01L239.95 10.4906C239.87 10.3206 239.87 10.3206 239.49 10.4906C239.217 10.6335 238.917 10.7154 238.61 10.7306C238.444 10.7572 238.274 10.7364 238.12 10.6706L238.04 10.7406ZM239.66 10.0506C239.781 9.9731 239.883 9.87045 239.961 9.74966C240.039 9.62887 240.089 9.49276 240.11 9.35062V9.23062H239.92C239.631 9.2732 239.351 9.36094 239.09 9.49062C239.027 9.52979 238.973 9.58073 238.93 9.64062C238.895 9.70895 238.874 9.7839 238.87 9.86062C238.87 10.0006 238.87 10.0406 238.99 10.0806C239.21 10.1341 239.44 10.1341 239.66 10.0806V10.0506ZM241.32 12.0506C241.2 12.0506 241.2 11.9706 241.32 11.6506C241.44 11.3306 241.42 11.2206 241.7 11.1806C241.98 11.1406 242.13 11.0706 242.2 10.9406C242.294 10.1936 242.294 9.43766 242.2 8.69062C242.171 8.26777 242.171 7.84346 242.2 7.42062C242.2 7.42062 242.37 7.42062 242.77 7.42062H243.3V8.42063C243.279 8.75362 243.279 9.08763 243.3 9.42063C243.36 9.47063 243.56 9.14062 244.39 7.62063L244.5 7.40062H245C245.16 7.38821 245.32 7.38821 245.48 7.40062C245.48 7.40062 244.78 8.69062 244.06 9.90062C243.06 11.6306 242.85 11.9006 242.37 12.0006C242.039 12.0529 241.704 12.0696 241.37 12.0506H241.32Z" fill="#2A2C83"/>
<path fill-rule="evenodd" clip-rule="evenodd" d="M245.789 11.6698L247.189 6.58984L248.529 9.21984L245.789 11.6698Z" fill="#097A44"/>
<path fill-rule="evenodd" clip-rule="evenodd" d="M244.91 11.6894L246.32 6.60938L247.66 9.23937L244.91 11.6894Z" fill="#F46F20"/>
<path d="M214.43 1H185.57C185.242 1.00261 184.928 1.1341 184.696 1.36608C184.464 1.59806 184.333 1.91194 184.33 2.24V15.76C184.333 16.0881 184.464 16.4019 184.696 16.6339C184.928 16.8659 185.242 16.9974 185.57 17H214.43C214.758 16.9974 215.072 16.8659 215.304 16.6339C215.536 16.4019 215.667 16.0881 215.67 15.76V2.24C215.667 1.91194 215.536 1.59806 215.304 1.36608C215.072 1.1341 214.758 1.00261 214.43 1Z" fill="white"/>
<path d="M195.449 17H214.449C214.612 17.0013 214.773 16.9705 214.923 16.9093C215.073 16.848 215.21 16.7576 215.325 16.6433C215.441 16.5289 215.532 16.3929 215.595 16.243C215.657 16.0931 215.689 15.9324 215.689 15.77V10C215.689 10 208.549 14.84 195.469 17H195.449Z" fill="#F58220"/>
<path fill-rule="evenodd" clip-rule="evenodd" d="M189.059 8.4395C188.777 8.66564 188.419 8.77324 188.059 8.7395H187.859V6.3095H188.059C188.237 6.29117 188.417 6.30824 188.589 6.35972C188.76 6.41121 188.92 6.49609 189.059 6.6095C189.188 6.72288 189.292 6.86283 189.363 7.01986C189.434 7.17688 189.47 7.34729 189.469 7.5195C189.47 7.6932 189.434 7.86513 189.363 8.02379C189.293 8.18245 189.189 8.32418 189.059 8.4395ZM188.199 5.6895H187.109V9.3595H188.189C188.679 9.38359 189.162 9.23101 189.549 8.9295C189.761 8.76036 189.931 8.54586 190.049 8.30182C190.167 8.05778 190.228 7.79044 190.229 7.5195C190.227 7.26509 190.173 7.01381 190.069 6.78136C189.966 6.54891 189.815 6.34029 189.628 6.16854C189.44 5.99679 189.219 5.86561 188.978 5.78318C188.738 5.70076 188.482 5.66887 188.229 5.6895H188.199ZM190.579 5.6895H191.309V9.3595H190.579V5.6895ZM193.119 7.0895C192.679 6.9395 192.549 6.8295 192.549 6.6295C192.549 6.4295 192.779 6.2295 193.099 6.2295C193.214 6.23052 193.328 6.25706 193.431 6.3072C193.535 6.35734 193.626 6.42985 193.699 6.5195L194.079 6.0295C193.77 5.76555 193.375 5.62334 192.969 5.6295C192.68 5.60732 192.394 5.69988 192.173 5.88709C191.953 6.0743 191.814 6.34106 191.789 6.6295C191.789 7.1295 192.019 7.3895 192.719 7.6295C192.895 7.68493 193.065 7.75518 193.229 7.8395C193.294 7.87962 193.349 7.93442 193.389 7.9995C193.427 8.06664 193.448 8.1423 193.449 8.2195C193.448 8.29176 193.432 8.36301 193.402 8.42889C193.372 8.49476 193.33 8.55387 193.276 8.60257C193.223 8.65127 193.16 8.68854 193.092 8.71209C193.023 8.73564 192.951 8.74497 192.879 8.7395C192.71 8.74158 192.544 8.69656 192.399 8.6095C192.257 8.52262 192.143 8.39793 192.069 8.2495L191.589 8.6995C191.729 8.92136 191.924 9.10273 192.156 9.22555C192.387 9.34837 192.647 9.40835 192.909 9.3995C193.076 9.41336 193.244 9.39234 193.403 9.33777C193.561 9.2832 193.707 9.19627 193.83 9.0825C193.953 8.96873 194.051 8.8306 194.118 8.67687C194.185 8.52315 194.219 8.35718 194.219 8.1895C194.219 7.6095 193.959 7.3395 193.119 7.0395V7.0895ZM194.449 7.5195C194.45 7.77811 194.503 8.03385 194.605 8.27152C194.707 8.50919 194.856 8.72396 195.042 8.90305C195.229 9.08215 195.449 9.22193 195.691 9.31408C195.933 9.40623 196.19 9.44889 196.449 9.4395C196.772 9.4424 197.091 9.36691 197.379 9.2195V8.3795C197.266 8.50605 197.127 8.60714 196.972 8.67609C196.817 8.74504 196.649 8.78029 196.479 8.7795C196.311 8.78648 196.144 8.75874 195.987 8.69802C195.83 8.6373 195.688 8.54491 195.569 8.42663C195.45 8.30835 195.356 8.16673 195.294 8.01064C195.232 7.85455 195.203 7.68735 195.209 7.5195C195.206 7.35499 195.236 7.19159 195.297 7.03883C195.359 6.88607 195.449 6.74701 195.565 6.62973C195.68 6.51246 195.818 6.41933 195.97 6.35577C196.121 6.29221 196.284 6.25948 196.449 6.2595C196.624 6.26013 196.797 6.29686 196.957 6.36742C197.117 6.43797 197.26 6.54081 197.379 6.6695V5.8295C197.098 5.68298 196.786 5.60745 196.469 5.6095C195.95 5.60379 195.45 5.7998 195.073 6.15616C194.696 6.51251 194.472 7.00135 194.449 7.5195ZM203.369 8.1495L202.369 5.6895H201.559L203.169 9.4495H203.569L205.209 5.6895H204.409L203.409 8.1495H203.369ZM205.529 9.3595H207.629V8.7395H206.269V7.7395H207.579V7.1195H206.269V6.3095H207.629V5.6895H205.529V9.3595ZM209.069 7.3595H208.859V6.2695H209.089C209.549 6.2695 209.799 6.4495 209.799 6.8095C209.799 7.1695 209.549 7.3795 209.069 7.3795V7.3595ZM210.559 6.7495C210.559 6.0595 210.069 5.6695 209.219 5.6695H208.119V9.3595H208.859V7.8795H208.959L209.959 9.3595H210.869L209.699 7.8095C209.939 7.77554 210.159 7.65537 210.317 7.47139C210.475 7.2874 210.561 7.05216 210.559 6.8095V6.7495Z" fill="#1A1919"/>
<path fill-rule="evenodd" clip-rule="evenodd" d="M201.66 7.53027C201.66 8.0607 201.449 8.56941 201.074 8.94448C200.699 9.31955 200.191 9.53026 199.66 9.53026C199.13 9.53026 198.621 9.31955 198.246 8.94448C197.871 8.56941 197.66 8.0607 197.66 7.53027C197.66 6.99983 197.871 6.49112 198.246 6.11605C198.621 5.74098 199.13 5.53027 199.66 5.53027C200.191 5.53027 200.699 5.74098 201.074 6.11605C201.449 6.49112 201.66 6.99983 201.66 7.53027Z" fill="#F58220"/>
<path d="M178.33 0.669922H148.33C148.065 0.669922 147.811 0.775279 147.623 0.962815C147.435 1.15035 147.33 1.40471 147.33 1.66992V16.3299C147.33 16.5951 147.435 16.8495 147.623 17.037C147.811 17.2246 148.065 17.3299 148.33 17.3299H178.33C178.595 17.3299 178.85 17.2246 179.037 17.037C179.225 16.8495 179.33 16.5951 179.33 16.3299V1.66992C179.33 1.40471 179.225 1.15035 179.037 0.962815C178.85 0.775279 178.595 0.669922 178.33 0.669922Z" fill="white" stroke="#E0E0E0" stroke-width="0.67"/>
<path fill-rule="evenodd" clip-rule="evenodd" d="M160.301 4H166.411C167.737 4 169.009 4.52678 169.946 5.46447C170.884 6.40215 171.411 7.67392 171.411 9C171.411 9.9894 171.117 10.9565 170.567 11.7789C170.017 12.6013 169.235 13.242 168.321 13.62C167.712 13.8704 167.059 13.9995 166.401 14H160.301V4Z" fill="#184977"/>
<path d="M160.3 13.5007C161.188 13.4908 162.053 13.2186 162.786 12.7181C163.52 12.2177 164.089 11.5115 164.422 10.6884C164.755 9.86533 164.837 8.96214 164.657 8.09255C164.478 7.22295 164.046 6.42581 163.414 5.80147C162.783 5.17712 161.981 4.75348 161.11 4.58386C160.238 4.41424 159.336 4.50623 158.517 4.84824C157.697 5.19026 156.997 5.76701 156.505 6.50591C156.013 7.24481 155.75 8.11283 155.75 9.0007C155.753 9.59513 155.872 10.1832 156.103 10.7312C156.333 11.2793 156.669 11.7765 157.092 12.1945C157.514 12.6125 158.015 12.9431 158.566 13.1672C159.116 13.3913 159.706 13.5047 160.3 13.5007Z" fill="white" stroke="#184977"/>
<path fill-rule="evenodd" clip-rule="evenodd" d="M162.32 9C162.321 8.51604 162.179 8.04264 161.91 7.64C161.641 7.23953 161.258 6.92938 160.81 6.75V11.25C161.258 11.0706 161.641 10.7605 161.91 10.36C162.179 9.95736 162.321 9.48396 162.32 9ZM159.8 11.25V6.75C159.349 6.9286 158.962 7.23861 158.689 7.63982C158.417 8.04103 158.271 8.51492 158.271 9C158.271 9.48508 158.417 9.95897 158.689 10.3602C158.962 10.7614 159.349 11.0714 159.8 11.25Z" fill="#184977"/>
<path d="M141.67 0.669922H111.67C111.405 0.669922 111.15 0.775279 110.963 0.962815C110.775 1.15035 110.67 1.40471 110.67 1.66992V16.3299C110.67 16.5951 110.775 16.8495 110.963 17.037C111.15 17.2246 111.405 17.3299 111.67 17.3299H141.67C141.935 17.3299 142.189 17.2246 142.377 17.037C142.565 16.8495 142.67 16.5951 142.67 16.3299V1.66992C142.67 1.40471 142.565 1.15035 142.377 0.962815C142.189 0.775279 141.935 0.669922 141.67 0.669922Z" fill="white" stroke="#E0E0E0" stroke-width="0.67"/>
<path d="M128.79 11.69L128.51 11.35V11.69H127.59V11.1C127.472 11.1591 127.342 11.1899 127.21 11.19H126.88V11.69H125.5L125.25 11.36L125 11.69H122.71V9.51H125L125.25 9.83L125.5 9.51H133.9V2H120V7.87L120.52 6.64H121.42L121.72 7.32V6.64H122.84L123.02 7.14L123.19 6.64H128.19V6.89C128.393 6.7243 128.648 6.63574 128.91 6.64H130.51L130.81 7.32V6.64H131.76L132 7V6.64H133V8.82H132L131.75 8.43V8.82H130.37L130.23 8.49H129.86L129.72 8.82H128.87C128.619 8.83266 128.373 8.75056 128.18 8.59V8.82H126.77L126.49 8.48V8.82H121.25L121.12 8.49H120.74L120.6 8.82H120V15.91H133.91V11.53C133.756 11.641 133.57 11.6973 133.38 11.69H128.79Z" fill="#0079C1"/>
<path d="M133.919 9.78068L133.759 10.1507L132.979 9.99068C132.963 9.98408 132.946 9.98068 132.929 9.98068C132.912 9.98068 132.895 9.98408 132.879 9.99068C132.87 10.02 132.87 10.0514 132.879 10.0807C132.879 10.1178 132.894 10.1534 132.92 10.1797C132.946 10.2059 132.982 10.2207 133.019 10.2207H133.399C133.729 10.2207 133.919 10.3907 133.919 10.6907C133.933 10.76 133.933 10.8314 133.919 10.9007C133.891 10.9704 133.846 11.0322 133.789 11.0807C133.735 11.1303 133.672 11.1683 133.604 11.1924C133.535 11.2165 133.462 11.2261 133.389 11.2207H132.539V10.8507H133.459C133.465 10.8346 133.465 10.8168 133.459 10.8007C133.464 10.781 133.464 10.7604 133.459 10.7407H133.409H132.959C132.893 10.755 132.825 10.755 132.759 10.7407C132.695 10.7213 132.637 10.687 132.589 10.6407C132.538 10.5947 132.5 10.5361 132.479 10.4707C132.465 10.4082 132.465 10.3432 132.479 10.2807C132.479 10.2077 132.496 10.1357 132.529 10.0707C132.557 10.0036 132.598 9.94247 132.649 9.89068C132.704 9.84091 132.768 9.80341 132.839 9.78068C132.908 9.76582 132.98 9.76582 133.049 9.78068H133.919Z" fill="#0079C1"/>
<path d="M105 0.669922H75C74.7348 0.669922 74.4804 0.775279 74.2929 0.962815C74.1054 1.15035 74 1.40471 74 1.66992V16.3299C74 16.5951 74.1054 16.8495 74.2929 17.037C74.4804 17.2246 74.7348 17.3299 75 17.3299H105C105.265 17.3299 105.52 17.2246 105.707 17.037C105.895 16.8495 106 16.5951 106 16.3299V1.66992C106 1.40471 105.895 1.15035 105.707 0.962815C105.52 0.775279 105.265 0.669922 105 0.669922Z" fill="white" stroke="#E0E0E0" stroke-width="0.67"/>
<path d="M86.4609 14C87.4498 14 88.4165 13.7068 89.2387 13.1573C90.061 12.6079 90.7018 11.827 91.0803 10.9134C91.4587 9.99979 91.5577 8.99446 91.3648 8.02455C91.1719 7.05465 90.6957 6.16373 89.9964 5.46447C89.2971 4.76521 88.4062 4.289 87.4363 4.09608C86.4664 3.90315 85.4611 4.00217 84.5474 4.3806C83.6338 4.75904 82.8529 5.39991 82.3035 6.22215C81.7541 7.0444 81.4609 8.0111 81.4609 9C81.4609 10.3261 81.9876 11.5979 82.9253 12.5355C83.863 13.4732 85.1348 14 86.4609 14Z" fill="#007BDB"/>
<path d="M93.5405 13.9996C94.5267 13.9878 95.4875 13.6845 96.3018 13.128C97.1161 12.5714 97.7476 11.7864 98.1169 10.8718C98.4861 9.95724 98.5766 8.95385 98.377 7.98793C98.1773 7.02201 97.6965 6.13672 96.9949 5.44344C96.2933 4.75017 95.4023 4.27989 94.4341 4.09178C93.4658 3.90366 92.4636 4.00612 91.5535 4.38626C90.6433 4.7664 89.8659 5.40723 89.3191 6.22813C88.7723 7.04902 88.4806 8.0133 88.4805 8.99964C88.4804 9.66133 88.6117 10.3164 88.8667 10.927C89.1218 11.5376 89.4954 12.0915 89.9661 12.5565C90.4368 13.0216 90.9951 13.3887 91.6086 13.6364C92.2222 13.8841 92.8788 14.0076 93.5405 13.9996Z" fill="#E42B00"/>
<path fill-rule="evenodd" clip-rule="evenodd" d="M89.9995 12.5799C90.8962 11.5927 91.432 10.3308 91.5195 8.99992C91.432 7.66909 90.8962 6.40716 89.9995 5.41992C89.5079 5.87561 89.1182 6.4302 88.8563 7.04722C88.5943 7.66424 88.4659 8.32973 88.4795 8.99992C88.4678 9.66985 88.597 10.3348 88.8589 10.9515C89.1208 11.5683 89.5094 12.1231 89.9995 12.5799Z" fill="#1740CE"/>
<path d="M68.3301 0.669922H38.3301C38.0649 0.669922 37.8105 0.775279 37.623 0.962815C37.4354 1.15035 37.3301 1.40471 37.3301 1.66992V16.3299C37.3301 16.5951 37.4354 16.8495 37.623 17.037C37.8105 17.2246 38.0649 17.3299 38.3301 17.3299H68.3301C68.5953 17.3299 68.8496 17.2246 69.0372 17.037C69.2247 16.8495 69.3301 16.5951 69.3301 16.3299V1.66992C69.3301 1.40471 69.2247 1.15035 69.0372 0.962815C68.8496 0.775279 68.5953 0.669922 68.3301 0.669922Z" fill="white" stroke="#E0E0E0" stroke-width="0.67"/>
<path d="M49.8002 13.9996C50.7865 13.9878 51.7472 13.6845 52.5615 13.128C53.3759 12.5714 54.0074 11.7864 54.3766 10.8718C54.7459 9.95724 54.8364 8.95385 54.6367 7.98793C54.4371 7.02201 53.9562 6.13672 53.2546 5.44344C52.553 4.75017 51.6621 4.27989 50.6938 4.09178C49.7256 3.90366 48.7234 4.00612 47.8132 4.38626C46.9031 4.7664 46.1257 5.40723 45.5789 6.22813C45.0321 7.04902 44.7403 8.0133 44.7402 8.99964C44.7402 9.66133 44.8715 10.3164 45.1265 10.927C45.3815 11.5376 45.7552 12.0915 46.2258 12.5565C46.6965 13.0216 47.2548 13.3887 47.8684 13.6364C48.482 13.8841 49.1386 14.0076 49.8002 13.9996Z" fill="#CC0000"/>
<path d="M56.8691 14C57.858 14 58.8247 13.7068 59.647 13.1573C60.4692 12.6079 61.1101 11.827 61.4885 10.9134C61.867 9.99979 61.966 8.99446 61.773 8.02455C61.5801 7.05465 61.1039 6.16373 60.4047 5.46447C59.7054 4.76521 58.8145 4.289 57.8446 4.09608C56.8747 3.90315 55.8693 4.00217 54.9557 4.3806C54.0421 4.75904 53.2612 5.39991 52.7118 6.22215C52.1624 7.0444 51.8691 8.0111 51.8691 9C51.8691 10.3261 52.3959 11.5979 53.3336 12.5355C54.2713 13.4732 55.543 14 56.8691 14Z" fill="#FF9900"/>
<path fill-rule="evenodd" clip-rule="evenodd" d="M53.3294 12.5799C54.2262 11.5927 54.762 10.3308 54.8494 8.99992C54.762 7.66909 54.2262 6.40716 53.3294 5.41992C52.8401 5.8769 52.4527 6.43195 52.1925 7.04884C51.9323 7.66572 51.8052 8.33056 51.8194 8.99992C51.8071 9.66902 51.9351 10.3333 52.1951 10.9499C52.4552 11.5665 52.8416 12.1218 53.3294 12.5799Z" fill="#F16D27"/>
<path d="M31.6699 0.669922H1.66992C1.40471 0.669922 1.15035 0.775279 0.962815 0.962815C0.775279 1.15035 0.669922 1.40471 0.669922 1.66992V16.3299C0.669922 16.5951 0.775279 16.8495 0.962815 17.037C1.15035 17.2246 1.40471 17.3299 1.66992 17.3299H31.6699C31.9351 17.3299 32.1895 17.2246 32.377 17.037C32.5646 16.8495 32.6699 16.5951 32.6699 16.3299V1.66992C32.6699 1.40471 32.5646 1.15035 32.377 0.962815C32.1895 0.775279 31.9351 0.669922 31.6699 0.669922Z" fill="white" stroke="#E0E0E0" stroke-width="0.67"/>
<path d="M14 5.79996L11.25 12.36H9.43L8.08 7.11996C8.06406 6.9972 8.01838 6.8802 7.94693 6.77912C7.87547 6.67804 7.78041 6.59594 7.67 6.53996C7.13718 6.29318 6.57643 6.11186 6 5.99996V5.79996H8.93C9.11859 5.80277 9.29977 5.87383 9.44 5.99996C9.58018 6.12604 9.67505 6.29469 9.71 6.47996L10.42 10.28L12.19 5.79996H14ZM21 10.22C21 8.47996 18.61 8.38996 18.62 7.60996C18.62 7.37996 18.85 7.12996 19.34 7.06996C19.9094 7.01357 20.4834 7.11385 21 7.35996L21.31 5.99996C20.8052 5.80868 20.2699 5.71042 19.73 5.70996C18.06 5.70996 16.87 6.59996 16.86 7.87996C16.86 8.81996 17.7 9.34996 18.35 9.65996C19 9.96996 19.23 10.19 19.23 10.48C19.23 10.92 18.7 11.11 18.23 11.12C17.6233 11.1336 17.0236 10.9888 16.49 10.7L16.18 12.14C16.7831 12.3719 17.4238 12.4906 18.07 12.49C19.85 12.49 21.02 11.61 21.02 10.25L21 10.22ZM25.43 12.35H27L25.63 5.79996H24.18C24.0266 5.79702 23.8761 5.84251 23.75 5.92996C23.6181 6.01225 23.5163 6.13504 23.46 6.27996L20.91 12.36H22.69L23.05 11.36H25.23L25.43 12.35ZM23.54 9.99996L24.43 7.53996L24.94 9.99996H23.54ZM16.4 5.79996L15 12.36H13.3L14.7 5.79996H16.4Z" fill="#1A1F71"/>
</g>
<defs>
<clipPath id="clip0_10765_23974">
<rect width="335" height="18" fill="white"/>
</clipPath>
</defs>
</svg>
