<svg width="25" height="25" viewBox="0 0 25 25" fill="none" xmlns="http://www.w3.org/2000/svg">
<path d="M22.1583 12.7172C22.1583 12.0366 22.1036 11.3561 21.9942 10.6895H12.6992V14.5365H18.0243C17.8052 15.7726 17.0934 16.8837 16.053 17.578V20.0779H19.2289C21.0906 18.3419 22.1583 15.7726 22.1583 12.7172Z" fill="#4285F4"/>
<path d="M12.7026 22.4961C15.3583 22.4961 17.6033 21.6072 19.2322 20.0795L16.0564 17.5797C15.1666 18.1907 14.0305 18.5379 12.7026 18.5379C10.129 18.5379 7.95245 16.7741 7.17218 14.4131H3.90039V16.9963C5.57056 20.3712 8.97909 22.4961 12.7026 22.4961Z" fill="#34A853"/>
<path d="M7.17164 14.4132C6.76096 13.1771 6.76096 11.8301 7.17164 10.58V8.01074H3.89949C2.48923 10.8301 2.48923 14.1633 3.89949 16.9825L7.17164 14.4132Z" fill="#FBBC04"/>
<path d="M12.7026 6.45476C14.1126 6.42696 15.4678 6.96866 16.4808 7.95467L19.3008 5.09368C17.5074 3.39933 15.153 2.46891 12.7026 2.4967C8.97909 2.4967 5.57056 4.63547 3.90039 8.01026L7.17219 10.5935C7.95245 8.21857 10.129 6.45476 12.7026 6.45476Z" fill="#EA4335"/>
</svg>
