<svg width="1408" height="314" viewBox="0 0 1408 314" fill="none" xmlns="http://www.w3.org/2000/svg">
<path d="M128.319 214.028C132.644 213.514 136.969 213.002 141.294 212.488C144.668 212.088 144.053 206.832 140.674 207.233C136.348 207.745 132.024 208.258 127.699 208.772C124.324 209.174 124.94 214.43 128.319 214.028Z" fill="#F7CA57"/>
<path d="M196.305 -10.83C191.77 -9.03855 187.235 -7.24715 182.7 -5.45573C179.161 -4.05963 181.322 1.45349 184.866 0.0546074C189.401 -1.73681 193.936 -3.52635 198.473 -5.31777C202.01 -6.71665 199.848 -12.2298 196.305 -10.83Z" fill="#ED8AB8"/>
<path d="M1307.58 317.671C1309.24 317.757 1310.91 317.844 1312.57 317.93C1314.21 318.017 1315.87 316.646 1315.88 314.938C1315.89 313.224 1314.66 311.71 1312.9 311.617C1311.23 311.531 1309.57 311.444 1307.91 311.358C1306.26 311.273 1304.61 312.642 1304.6 314.351C1304.58 316.065 1305.82 317.581 1307.58 317.671Z" fill="#F38626"/>
<path d="M230.537 260.481C228.016 261.284 225.494 262.087 222.973 262.891C221.006 263.517 221.975 266.582 223.945 265.953C226.466 265.15 228.988 264.347 231.509 263.544C233.477 262.919 232.508 259.853 230.537 260.481Z" fill="#EB1B75"/>
<path d="M50.5179 176.229C52.0334 175.84 53.5471 175.453 55.0617 175.064C56.5634 174.68 57.6632 172.988 57.1975 171.453C56.7309 169.912 55.2034 168.9 53.5943 169.312C52.0788 169.701 50.5651 170.088 49.0505 170.477C47.5489 170.861 46.449 172.553 46.9147 174.089C47.3813 175.629 48.9089 176.641 50.5179 176.229Z" fill="#F1A826"/>
<path d="M23.5955 80.515C22.2652 82.0537 20.9357 83.5905 19.6054 85.1283C18.2879 86.6531 18.3639 89.2731 19.9942 90.5655C21.6301 91.8634 24.0075 91.8107 25.4194 90.1766C26.7497 88.6398 28.0792 87.1011 29.4077 85.5634C30.7251 84.0404 30.651 81.4186 29.0207 80.1262C27.3848 78.8282 25.0074 78.881 23.5955 80.515Z" fill="#F7CA57"/>
<path d="M539.812 7.47177C539.78 10.1408 539.747 12.8117 539.715 15.4817C539.69 17.5648 542.92 17.6083 542.945 15.5206C542.978 12.8515 543.01 10.1816 543.042 7.51064C543.065 5.4276 539.836 5.38595 539.812 7.47177Z" fill="#F1A826"/>
<path d="M1059.22 234.049C1059.88 233.399 1060.54 232.749 1061.2 232.098C1061.86 231.453 1061.92 230.258 1061.22 229.609C1060.53 228.958 1059.45 228.895 1058.74 229.586C1058.08 230.236 1057.42 230.887 1056.76 231.537C1056.1 232.182 1056.04 233.377 1056.73 234.025C1057.43 234.676 1058.51 234.739 1059.22 234.049Z" fill="#66CEAF"/>
<path d="M1366.35 235.565C1367.9 234.641 1369.45 233.715 1371.01 232.79C1372.55 231.873 1373.21 229.639 1372.2 228.088C1371.18 226.535 1369.16 225.911 1367.51 226.892C1365.95 227.818 1364.4 228.744 1362.85 229.668C1361.31 230.586 1360.64 232.82 1361.66 234.369C1362.68 235.924 1364.7 236.548 1366.35 235.565Z" fill="#BAD2D6"/>
<path d="M975.493 122.319C975.286 123.271 975.081 124.222 974.874 125.173C974.67 126.116 975.302 127.199 976.283 127.366C977.266 127.534 978.252 126.966 978.471 125.956C978.677 125.004 978.883 124.053 979.089 123.101C979.293 122.159 978.662 121.076 977.68 120.907C976.696 120.739 975.71 121.308 975.493 122.319Z" fill="#F7CA57"/>
<path d="M1202.93 235.572C1202.6 230.137 1202.26 224.701 1201.93 219.267C1201.67 215.027 1195.1 215.425 1195.36 219.671C1195.69 225.106 1196.02 230.54 1196.35 235.976C1196.61 240.215 1203.19 239.818 1202.93 235.572Z" fill="#B475FF"/>
<path d="M205.162 146.454C202.133 144.744 199.106 143.034 196.077 141.323C193.714 139.99 191.641 143.667 194.008 145.003C197.037 146.714 200.064 148.424 203.092 150.134C205.455 151.468 207.527 147.79 205.162 146.454Z" fill="#F38626"/>
<path d="M1407.43 127.357C1405.63 126.507 1404.86 124.355 1405.7 122.549C1406.55 120.744 1408.7 119.969 1410.5 120.82C1412.3 121.67 1413.08 123.822 1412.23 125.628C1411.38 127.433 1409.23 128.206 1407.43 127.357Z" fill="#F1A826"/>
<path d="M1404.3 27.6639C1406.81 26.7779 1409.32 25.8937 1411.84 25.0086C1414.32 24.1319 1415.94 21.099 1414.92 18.5633C1413.9 16.0201 1411.16 14.5314 1408.49 15.4711C1405.98 16.3571 1403.47 17.2422 1400.95 18.1282C1398.47 19.0049 1396.85 22.0378 1397.87 24.5735C1398.89 27.1158 1401.64 28.6035 1404.3 27.6639Z" fill="#F7CA57"/>
<path d="M665.973 119.808C665.48 120.755 664.987 121.704 664.493 122.652C664.033 123.539 665.407 124.258 665.868 123.371C666.362 122.422 666.856 121.475 667.348 120.526C667.81 119.639 666.436 118.919 665.973 119.808Z" fill="#F7CA57"/>
<path d="M1171.48 -8.61781C1172.13 -2.08354 1172.77 4.45165 1173.41 10.9859C1173.92 16.0843 1181.82 15.3094 1181.32 10.2018C1180.68 3.66751 1180.03 -2.8677 1179.39 -9.40197C1178.88 -14.5003 1170.98 -13.7254 1171.48 -8.61781Z" fill="#8ED87C"/>
<path d="M1313.19 47.4471C1313.1 55.5219 1313 63.5977 1312.91 71.6725C1312.83 77.9725 1322.6 78.0994 1322.68 71.7882C1322.77 63.7134 1322.87 55.6395 1322.96 47.5628C1323.04 41.2646 1313.27 41.1369 1313.19 47.4471Z" fill="#F1A826"/>
<path d="M1112.07 215.42C1112.46 211.06 1112.86 206.697 1113.25 202.337C1113.62 198.259 1107.29 197.68 1106.93 201.766C1106.53 206.126 1106.14 210.487 1105.75 214.847C1105.38 218.926 1111.71 219.505 1112.07 215.42Z" fill="#66CEAF"/>
<path d="M215.427 53.2468C214.726 54.3004 213.305 54.5846 212.254 53.8829C211.203 53.1811 210.918 51.7581 211.618 50.7046C212.319 49.651 213.74 49.3668 214.791 50.0686C215.841 50.7703 216.126 52.1933 215.427 53.2468Z" fill="#F38626"/>
<path d="M437.605 167.235C438.53 166.556 439.456 165.876 440.382 165.196C441.249 164.56 440.264 163.21 439.398 163.847C438.47 164.526 437.544 165.206 436.619 165.886C435.753 166.522 436.737 167.873 437.605 167.235Z" fill="#66CEAF"/>
<path d="M1080.36 8.00715C1078.24 11.5511 1076.12 15.0969 1074 18.6418C1072.02 21.9561 1077.16 25.0501 1079.14 21.7293C1081.26 18.1853 1083.38 14.6404 1085.5 11.0946C1087.49 7.78029 1082.35 4.68632 1080.36 8.00715Z" fill="#F38626"/>
<path d="M380.079 25.8519C382.73 24.8271 385.382 23.8031 388.034 22.7783C390.103 21.9793 388.867 18.7556 386.795 19.5565C384.143 20.5813 381.492 21.6053 378.84 22.6301C376.771 23.43 378.007 26.6527 380.079 25.8519Z" fill="#F78A78"/>
<path d="M97.1796 59.1964C97.749 60.6527 97.0333 62.296 95.5798 62.8672C94.1263 63.4366 92.4876 62.719 91.9183 61.2628C91.3489 59.8065 92.0646 58.1632 93.5181 57.5938C94.9716 57.0226 96.6102 57.7401 97.1796 59.1964Z" fill="#F38626"/>
<path d="M1398.29 311.883C1396.76 305.812 1395.23 299.74 1393.71 293.668C1392.28 287.99 1383.47 290.204 1384.9 295.892C1386.43 301.963 1387.96 308.036 1389.48 314.107C1390.91 319.783 1399.72 317.57 1398.29 311.883Z" fill="#BAD2D6"/>
<path d="M1212.78 145.28C1219.61 146.662 1226.44 148.047 1233.27 149.431C1238.6 150.511 1240.29 142.211 1234.95 141.129C1228.12 139.745 1221.29 138.363 1214.45 136.979C1209.12 135.898 1207.44 144.198 1212.78 145.28Z" fill="#BAD2D6"/>
</svg>
