<svg width="132" height="38" viewBox="0 0 132 38" fill="none" xmlns="http://www.w3.org/2000/svg">
<path d="M130.3 33.6281C130.3 35.6453 128.632 37.2793 126.568 37.2793H4.46455C2.40238 37.2793 0.728516 35.6453 0.728516 33.6281V4.51139C0.728516 2.49515 2.40238 0.855469 4.46455 0.855469H126.567C128.632 0.855469 130.299 2.49515 130.299 4.51139L130.3 33.6281Z" fill="black"/>
<path d="M126.174 0.899183C128.421 0.899183 130.249 2.68179 130.249 4.87248V33.2616C130.249 35.4523 128.421 37.2349 126.174 37.2349H4.85285C2.60598 37.2349 0.777668 35.4523 0.777668 33.2616V4.87248C0.777668 2.68179 2.60598 0.899183 4.85285 0.899183H126.174ZM126.174 0.140957H4.85285C2.18499 0.140957 0 2.27133 0 4.87248V33.2616C0 35.8628 2.18499 37.9932 4.85285 37.9932H126.174C128.842 37.9932 131.027 35.8628 131.027 33.2616V4.87248C131.027 2.27133 128.842 0.140957 126.174 0.140957Z" fill="#A6A6A6"/>
<path d="M29.2439 18.8639C29.2157 15.814 31.8052 14.3302 31.9236 14.2611C30.4571 12.1764 28.184 11.8915 27.3852 11.8688C25.4761 11.6729 23.6243 12.9826 22.6517 12.9826C21.6598 12.9826 20.1622 11.8878 18.5482 11.9199C16.4712 11.9512 14.5281 13.1236 13.4624 14.9443C11.2631 18.6567 12.9033 24.1121 15.0105 27.1129C16.0645 28.5825 17.2961 30.2234 18.9083 30.1656C20.4854 30.1022 21.0746 29.1853 22.9779 29.1853C24.8637 29.1853 25.4169 30.1656 27.061 30.1287C28.7537 30.1022 29.8194 28.6525 30.8366 27.1696C32.0546 25.4852 32.5438 23.8263 32.5632 23.7412C32.5234 23.7279 29.2759 22.5195 29.2439 18.8639Z" fill="white"/>
<path d="M26.138 9.89483C26.9863 8.86052 27.5667 7.45337 27.4056 6.02539C26.1778 6.07838 24.6424 6.85341 23.7582 7.86501C22.9759 8.75643 22.2771 10.2175 22.4576 11.5916C23.8368 11.6919 25.2529 10.9131 26.138 9.89483Z" fill="white"/>
<path d="M52.0645 29.9538H49.8603L48.653 26.2547H44.4562L43.3061 29.9538H41.1602L45.3181 17.3604H47.8862L52.0645 29.9538ZM48.289 24.7027L47.1971 21.4143C47.0816 21.0784 46.8652 20.2873 46.5458 19.0419H46.507C46.3799 19.5775 46.1751 20.3687 45.8936 21.4143L44.8211 24.7027H48.289Z" fill="white"/>
<path d="M62.7581 25.3007C62.7581 26.845 62.3301 28.0658 61.474 28.9619C60.7073 29.7597 59.7552 30.1581 58.6186 30.1581C57.3918 30.1581 56.5105 29.7284 55.9738 28.8692H55.935V33.6528H53.8657V23.8613C53.8657 22.8904 53.8395 21.894 53.7891 20.872H55.6089L55.7244 22.3113H55.7632C56.4533 21.2268 57.5005 20.6855 58.9059 20.6855C60.0046 20.6855 60.9218 21.1085 61.6555 21.9555C62.3912 22.8034 62.7581 23.9181 62.7581 25.3007ZM60.65 25.3745C60.65 24.4906 60.4462 23.762 60.0366 23.1885C59.5892 22.5905 58.9884 22.2914 58.2352 22.2914C57.7247 22.2914 57.2608 22.458 56.8464 22.7863C56.431 23.1176 56.1592 23.55 56.032 24.0856C55.968 24.3354 55.936 24.5398 55.936 24.7007V26.2148C55.936 26.8753 56.1437 27.4327 56.5591 27.8879C56.9745 28.343 57.5141 28.5702 58.178 28.5702C58.9573 28.5702 59.564 28.2768 59.9978 27.692C60.4326 27.1062 60.65 26.334 60.65 25.3745Z" fill="white"/>
<path d="M73.4681 25.3007C73.4681 26.845 73.04 28.0658 72.183 28.9619C71.4173 29.7597 70.4651 30.1581 69.3286 30.1581C68.1018 30.1581 67.2205 29.7284 66.6848 28.8692H66.6459V33.6528H64.5767V23.8613C64.5767 22.8904 64.5505 21.894 64.5 20.872H66.3198L66.4353 22.3113H66.4741C67.1632 21.2268 68.2105 20.6855 69.6168 20.6855C70.7146 20.6855 71.6317 21.1085 72.3674 21.9555C73.1002 22.8034 73.4681 23.9181 73.4681 25.3007ZM71.36 25.3745C71.36 24.4906 71.1552 23.762 70.7456 23.1885C70.2982 22.5905 69.6993 22.2914 68.9452 22.2914C68.4337 22.2914 67.9708 22.458 67.5554 22.7863C67.14 23.1176 66.8692 23.55 66.742 24.0856C66.6789 24.3354 66.6459 24.5398 66.6459 24.7007V26.2148C66.6459 26.8753 66.8536 27.4327 67.2671 27.8879C67.6825 28.3421 68.2221 28.5702 68.8879 28.5702C69.6673 28.5702 70.2739 28.2768 70.7078 27.692C71.1426 27.1062 71.36 26.334 71.36 25.3745Z" fill="white"/>
<path d="M85.4466 26.4212C85.4466 27.4924 85.0652 28.3639 84.2994 29.0367C83.4579 29.772 82.2864 30.1392 80.7811 30.1392C79.3912 30.1392 78.277 29.878 77.4336 29.3547L77.9131 27.6731C78.8215 28.2087 79.8183 28.4775 80.9044 28.4775C81.6837 28.4775 82.2903 28.3052 82.7261 27.9627C83.16 27.6201 83.3764 27.1602 83.3764 26.5868C83.3764 26.0758 83.1978 25.6452 82.8397 25.296C82.4835 24.9468 81.8885 24.6222 81.0577 24.3223C78.7963 23.4999 77.6665 22.2953 77.6665 20.7111C77.6665 19.6759 78.0625 18.8271 78.8555 18.1665C79.6455 17.5051 80.6996 17.1748 82.0176 17.1748C83.193 17.1748 84.1693 17.3745 84.9487 17.7729L84.4314 19.4175C83.7035 19.0315 82.8804 18.8384 81.9594 18.8384C81.2314 18.8384 80.6627 19.0135 80.255 19.3617C79.9105 19.6731 79.7377 20.0525 79.7377 20.502C79.7377 20.9998 79.9348 21.4114 80.3307 21.7351C80.6753 22.0341 81.3013 22.3577 82.2098 22.7069C83.3211 23.1432 84.1373 23.6532 84.6624 24.238C85.1855 24.821 85.4466 25.5506 85.4466 26.4212Z" fill="white"/>
<path d="M92.2892 22.3861H90.0084V26.7949C90.0084 27.9163 90.4102 28.4765 91.2157 28.4765C91.5855 28.4765 91.8922 28.4453 92.1349 28.3828L92.1921 29.9149C91.7845 30.0635 91.2478 30.1382 90.5829 30.1382C89.7657 30.1382 89.1271 29.895 88.6661 29.4096C88.207 28.9232 87.976 28.1074 87.976 26.9615V22.3842H86.6172V20.8701H87.976V19.2074L90.0084 18.6094V20.8701H92.2892V22.3861Z" fill="white"/>
<path d="M102.577 25.3376C102.577 26.7334 102.168 27.8794 101.351 28.7755C100.494 29.6982 99.3561 30.1581 97.9381 30.1581C96.5716 30.1581 95.4836 29.7162 94.6722 28.8323C93.8608 27.9485 93.4551 26.8328 93.4551 25.4881C93.4551 24.0809 93.8724 22.9283 94.71 22.0322C95.5457 21.1351 96.6735 20.6865 98.0915 20.6865C99.458 20.6865 100.558 21.1284 101.388 22.0132C102.181 22.8715 102.577 23.9797 102.577 25.3376ZM100.431 25.4029C100.431 24.5654 100.247 23.8472 99.8754 23.2482C99.4415 22.5233 98.8214 22.1618 98.0177 22.1618C97.1859 22.1618 96.5541 22.5242 96.1203 23.2482C95.7485 23.8481 95.5651 24.5777 95.5651 25.4408C95.5651 26.2782 95.7485 26.9965 96.1203 27.5946C96.5677 28.3194 97.1927 28.6809 97.9993 28.6809C98.7893 28.6809 99.4095 28.3119 99.857 27.5756C100.238 26.9653 100.431 26.2394 100.431 25.4029Z" fill="white"/>
<path d="M109.305 22.6463C109.1 22.6094 108.882 22.5905 108.653 22.5905C107.925 22.5905 107.362 22.8583 106.966 23.3948C106.622 23.868 106.449 24.466 106.449 25.1881V29.9527H104.38L104.4 23.7317C104.4 22.6851 104.374 21.7322 104.322 20.8729H106.125L106.2 22.6103H106.258C106.476 22.0132 106.821 21.5325 107.292 21.1719C107.753 20.8474 108.251 20.6855 108.788 20.6855C108.979 20.6855 109.152 20.6988 109.305 20.7225V22.6463Z" fill="white"/>
<path d="M118.558 24.9832C118.558 25.3446 118.534 25.6493 118.483 25.8982H112.275C112.299 26.7953 112.599 27.4814 113.175 27.9545C113.699 28.3775 114.375 28.5895 115.206 28.5895C116.125 28.5895 116.964 28.4466 117.718 28.1599L118.042 29.5604C117.161 29.9352 116.12 30.1216 114.92 30.1216C113.475 30.1216 112.342 29.7071 111.517 28.8791C110.694 28.0511 110.281 26.9392 110.281 25.5443C110.281 24.175 110.665 23.0347 111.432 22.1253C112.236 21.1544 113.322 20.6689 114.689 20.6689C116.031 20.6689 117.047 21.1544 117.737 22.1253C118.284 22.8965 118.558 23.8504 118.558 24.9832ZM116.585 24.4598C116.599 23.8618 116.464 23.3451 116.183 22.9088C115.825 22.3477 115.275 22.0676 114.534 22.0676C113.858 22.0676 113.307 22.3411 112.887 22.8899C112.543 23.3262 112.338 23.8495 112.275 24.4589H116.585V24.4598Z" fill="white"/>
<path d="M47.6084 9.6123C47.6084 10.7261 47.2658 11.5645 46.5816 12.1276C45.9478 12.6471 45.0471 12.9073 43.8805 12.9073C43.302 12.9073 42.807 12.8827 42.3926 12.8335V6.74784C42.9332 6.66267 43.5155 6.61914 44.1445 6.61914C45.2558 6.61914 46.0934 6.85477 46.6582 7.32603C47.291 7.8588 47.6084 8.62058 47.6084 9.6123ZM46.5359 9.63975C46.5359 8.91772 46.3399 8.36413 45.9478 7.97803C45.5557 7.59289 44.983 7.39984 44.2289 7.39984C43.9086 7.39984 43.6359 7.42066 43.4097 7.46419V12.0907C43.5349 12.1096 43.764 12.1181 44.0969 12.1181C44.8753 12.1181 45.4761 11.9071 45.8993 11.485C46.3224 11.063 46.5359 10.4479 46.5359 9.63975Z" fill="white"/>
<path d="M53.2956 10.5861C53.2956 11.2722 53.0947 11.8343 52.6929 12.2753C52.2716 12.7286 51.7135 12.9547 51.0167 12.9547C50.345 12.9547 49.8103 12.738 49.4114 12.3027C49.0134 11.8684 48.8145 11.3205 48.8145 10.6599C48.8145 9.96915 49.0192 9.40231 49.4308 8.96228C49.8423 8.52225 50.3955 8.30176 51.0924 8.30176C51.764 8.30176 52.3037 8.51846 52.7123 8.95282C53.1005 9.37487 53.2956 9.91994 53.2956 10.5861ZM52.2406 10.6183C52.2406 10.2067 52.1493 9.8537 51.9678 9.5594C51.7543 9.20359 51.4505 9.02568 51.0555 9.02568C50.6469 9.02568 50.3363 9.20359 50.1228 9.5594C49.9403 9.8537 49.8501 10.2123 49.8501 10.6363C49.8501 11.0479 49.9413 11.4009 50.1228 11.6952C50.3431 12.051 50.6498 12.2289 51.0458 12.2289C51.434 12.2289 51.7388 12.0482 51.9581 11.6857C52.1464 11.3858 52.2406 11.03 52.2406 10.6183Z" fill="white"/>
<path d="M60.92 8.3916L59.4884 12.8525H58.5567L57.9636 10.9154C57.8132 10.4318 57.6909 9.95111 57.5958 9.47417H57.5774C57.489 9.96436 57.3667 10.4441 57.2095 10.9154L56.5796 12.8525H55.6372L54.291 8.3916H55.3363L55.8536 10.5123C55.9788 11.0138 56.0817 11.4917 56.1642 11.944H56.1827C56.2584 11.5712 56.3836 11.0961 56.5602 10.5217L57.2095 8.39255H58.0384L58.6605 10.4763C58.811 10.9845 58.9332 11.4737 59.0274 11.945H59.0555C59.1244 11.486 59.2283 10.9968 59.3661 10.4763L59.9213 8.39255H60.92V8.3916Z" fill="white"/>
<path d="M66.192 12.8524H65.1749V10.2974C65.1749 9.51007 64.8682 9.11641 64.2528 9.11641C63.951 9.11641 63.7074 9.22428 63.5181 9.44099C63.3308 9.65769 63.2357 9.91319 63.2357 10.2056V12.8515H62.2185V9.66621C62.2185 9.27444 62.2059 8.84955 62.1816 8.38964H63.0755L63.1231 9.08707H63.1512C63.2696 8.87037 63.4463 8.69151 63.6783 8.54862C63.9539 8.38207 64.2625 8.29785 64.6003 8.29785C65.0273 8.29785 65.3826 8.43223 65.665 8.70192C66.0163 9.03218 66.192 9.52521 66.192 10.1801V12.8524Z" fill="white"/>
<path d="M68.9986 12.8525H67.9824V6.34473H68.9986V12.8525Z" fill="white"/>
<path d="M74.987 10.5861C74.987 11.2722 74.7861 11.8343 74.3843 12.2753C73.963 12.7286 73.404 12.9547 72.7081 12.9547C72.0355 12.9547 71.5007 12.738 71.1028 12.3027C70.7048 11.8684 70.5059 11.3205 70.5059 10.6599C70.5059 9.96915 70.7107 9.40231 71.1222 8.96228C71.5337 8.52225 72.0869 8.30176 72.7828 8.30176C73.4554 8.30176 73.9941 8.51846 74.4037 8.95282C74.7919 9.37487 74.987 9.91994 74.987 10.5861ZM73.931 10.6183C73.931 10.2067 73.8398 9.8537 73.6583 9.5594C73.4457 9.20359 73.141 9.02568 72.7469 9.02568C72.3373 9.02568 72.0267 9.20359 71.8142 9.5594C71.6317 9.8537 71.5415 10.2123 71.5415 10.6363C71.5415 11.0479 71.6327 11.4009 71.8142 11.6952C72.0345 12.051 72.3412 12.2289 72.7372 12.2289C73.1254 12.2289 73.4292 12.0482 73.6486 11.6857C73.8378 11.3858 73.931 11.03 73.931 10.6183Z" fill="white"/>
<path d="M79.9104 12.8535H78.9971L78.9214 12.3396H78.8932C78.5807 12.7494 78.1352 12.9547 77.5568 12.9547C77.1249 12.9547 76.7755 12.8194 76.5124 12.5507C76.2737 12.3065 76.1543 12.0028 76.1543 11.6422C76.1543 11.0971 76.3872 10.6817 76.856 10.394C77.3238 10.1064 77.9819 9.96536 78.8292 9.97199V9.88871C78.8292 9.30106 78.5128 9.0077 77.879 9.0077C77.4277 9.0077 77.0298 9.11842 76.6862 9.33796L76.4794 8.6869C76.9045 8.43045 77.4296 8.30176 78.0488 8.30176C79.2446 8.30176 79.8444 8.91686 79.8444 10.1471V11.7898C79.8444 12.2355 79.8667 12.5904 79.9104 12.8535ZM78.8544 11.3205V10.6325C77.7324 10.6136 77.1715 10.9136 77.1715 11.5315C77.1715 11.7643 77.2355 11.9384 77.3665 12.0548C77.4976 12.1712 77.6645 12.2289 77.8635 12.2289C78.0867 12.2289 78.2954 12.1598 78.4856 12.0226C78.6768 11.8845 78.7942 11.7094 78.8379 11.4946C78.8486 11.4463 78.8544 11.3877 78.8544 11.3205Z" fill="white"/>
<path d="M85.6898 12.8525H84.7872L84.7396 12.1361H84.7115C84.4232 12.6812 83.9321 12.9537 83.242 12.9537C82.6908 12.9537 82.2317 12.7427 81.8677 12.3206C81.5038 11.8986 81.3223 11.3507 81.3223 10.6779C81.3223 9.95583 81.5193 9.37101 81.9153 8.92435C82.2987 8.50798 82.7684 8.29979 83.3275 8.29979C83.9418 8.29979 84.3718 8.50136 84.6164 8.90543H84.6358V6.34473H85.6539V11.6507C85.6539 12.085 85.6656 12.4853 85.6898 12.8525ZM84.6358 10.9712V10.2274C84.6358 10.0987 84.6261 9.99463 84.6076 9.91514C84.5504 9.67667 84.4271 9.47605 84.2398 9.31423C84.0505 9.15241 83.8224 9.07103 83.5594 9.07103C83.1799 9.07103 82.8829 9.21771 82.6646 9.51201C82.4481 9.80631 82.3384 10.182 82.3384 10.641C82.3384 11.0819 82.4423 11.4396 82.651 11.715C82.8713 12.0084 83.1683 12.155 83.54 12.155C83.8739 12.155 84.1408 12.033 84.3436 11.7879C84.5397 11.5617 84.6358 11.2892 84.6358 10.9712Z" fill="white"/>
<path d="M94.3874 10.5861C94.3874 11.2722 94.1865 11.8343 93.7846 12.2753C93.3634 12.7286 92.8063 12.9547 92.1085 12.9547C91.4378 12.9547 90.903 12.738 90.5032 12.3027C90.1052 11.8684 89.9062 11.3205 89.9062 10.6599C89.9062 9.96915 90.111 9.40231 90.5226 8.96228C90.9341 8.52225 91.4873 8.30176 92.1851 8.30176C92.8558 8.30176 93.3964 8.51846 93.8041 8.95282C94.1923 9.37487 94.3874 9.91994 94.3874 10.5861ZM93.3333 10.6183C93.3333 10.2067 93.2421 9.8537 93.0606 9.5594C92.8461 9.20359 92.5433 9.02568 92.1473 9.02568C91.7397 9.02568 91.4291 9.20359 91.2146 9.5594C91.0321 9.8537 90.9418 10.2123 90.9418 10.6363C90.9418 11.0479 91.0331 11.4009 91.2146 11.6952C91.4349 12.051 91.7416 12.2289 92.1376 12.2289C92.5258 12.2289 92.8315 12.0482 93.0509 11.6857C93.2382 11.3858 93.3333 11.03 93.3333 10.6183Z" fill="white"/>
<path d="M99.859 12.8524H98.8428V10.2974C98.8428 9.51007 98.5361 9.11641 97.9198 9.11641C97.618 9.11641 97.3744 9.22428 97.1861 9.44099C96.9978 9.65769 96.9036 9.91319 96.9036 10.2056V12.8515H95.8855V9.66621C95.8855 9.27444 95.8739 8.84955 95.8496 8.38964H96.7425L96.7901 9.08707H96.8182C96.9376 8.87037 97.1143 8.69151 97.3453 8.54862C97.6219 8.38207 97.9295 8.29785 98.2683 8.29785C98.6943 8.29785 99.0496 8.43223 99.332 8.70192C99.6843 9.03218 99.859 9.52521 99.859 10.1801V12.8524Z" fill="white"/>
<path d="M106.703 9.13408H105.582V11.3011C105.582 11.8519 105.781 12.1272 106.175 12.1272C106.358 12.1272 106.509 12.1121 106.629 12.0809L106.655 12.8332C106.454 12.907 106.19 12.9439 105.865 12.9439C105.463 12.9439 105.151 12.8247 104.924 12.5862C104.697 12.3477 104.585 11.9465 104.585 11.3835V9.13408H103.916V8.39124H104.585V7.57363L105.582 7.28027V8.39029H106.702V9.13408H106.703Z" fill="white"/>
<path d="M112.087 12.8525H111.069V10.3164C111.069 9.51674 110.762 9.11645 110.148 9.11645C109.676 9.11645 109.354 9.3483 109.177 9.81199C109.147 9.90946 109.129 10.0287 109.129 10.1687V12.8515H108.113V6.34473H109.129V9.03318H109.149C109.469 8.54394 109.928 8.29979 110.523 8.29979C110.944 8.29979 111.293 8.43417 111.569 8.70387C111.914 9.0398 112.087 9.53945 112.087 10.2V12.8525Z" fill="white"/>
<path d="M117.644 10.4108C117.644 10.5887 117.63 10.7382 117.606 10.8603H114.555C114.569 11.3012 114.715 11.6372 114.997 11.87C115.255 12.0782 115.588 12.1823 115.996 12.1823C116.447 12.1823 116.859 12.1122 117.229 11.9712L117.389 12.6601C116.955 12.8437 116.444 12.9355 115.853 12.9355C115.145 12.9355 114.587 12.7321 114.183 12.3251C113.777 11.9182 113.576 11.3722 113.576 10.6871C113.576 10.0143 113.763 9.45405 114.141 9.0074C114.535 8.53046 115.068 8.29199 115.741 8.29199C116.399 8.29199 116.898 8.53046 117.236 9.0074C117.509 9.38592 117.644 9.85434 117.644 10.4108ZM116.673 10.1543C116.681 9.86002 116.614 9.60641 116.476 9.39255C116.3 9.11717 116.031 8.97901 115.667 8.97901C115.335 8.97901 115.064 9.11338 114.857 9.38308C114.688 9.59789 114.588 9.85434 114.555 10.1543H116.673Z" fill="white"/>
</svg>
