<svg width="25" height="25" viewBox="0 0 25 25" fill="none" xmlns="http://www.w3.org/2000/svg">
<path d="M20.5004 5.2959H4.50039C3.62039 5.2959 2.90039 6.0159 2.90039 6.8959V18.0959C2.90039 18.9759 3.62039 19.6959 4.50039 19.6959H20.5004C21.3804 19.6959 22.1004 18.9759 22.1004 18.0959V6.8959C22.1004 6.0159 21.3804 5.2959 20.5004 5.2959ZM19.5404 8.4959L13.0604 13.6159C12.7404 13.8559 12.2604 13.8559 11.8604 13.6159L5.46039 8.5759C5.22039 8.4159 5.14039 8.0159 5.38039 7.6959C5.62039 7.4559 5.94039 7.3759 6.26039 7.5359L12.5004 11.6959L18.8204 7.5359C19.1404 7.3759 19.5404 7.4559 19.7004 7.6959C19.8604 7.9359 19.7804 8.3359 19.5404 8.4959Z" fill="#292929"/>
</svg>
