<svg width="132" height="38" viewBox="0 0 132 38" fill="none" xmlns="http://www.w3.org/2000/svg">
<path d="M126.424 37.9932H5.27001C2.60582 37.9932 0.423828 35.8628 0.423828 33.2616V4.87249C0.423828 2.27133 2.60582 0.140962 5.27001 0.140962H126.424C129.089 0.140962 131.271 2.27133 131.271 4.87249V33.2616C131.271 35.8628 129.089 37.9932 126.424 37.9932Z" fill="black"/>
<path d="M126.424 0.899188C128.668 0.899188 130.494 2.68179 130.494 4.87249V33.2616C130.494 35.4523 128.668 37.2349 126.424 37.2349H5.27001C3.02623 37.2349 1.20043 35.4523 1.20043 33.2616V4.87249C1.20043 2.68179 3.02623 0.899188 5.27001 0.899188H126.424ZM126.424 0.140962H5.27001C2.60582 0.140962 0.423828 2.27133 0.423828 4.87249V33.2616C0.423828 35.8628 2.60582 37.9932 5.27001 37.9932H126.424C129.089 37.9932 131.271 35.8628 131.271 33.2616V4.87249C131.271 2.27133 129.089 0.140962 126.424 0.140962Z" fill="#A6A6A6"/>
<path d="M46.3823 9.83405C46.3823 10.6242 46.14 11.2571 45.6627 11.729C45.1138 12.2885 44.399 12.5701 43.5231 12.5701C42.6859 12.5701 41.9711 12.2838 41.3847 11.7196C40.7971 11.147 40.5039 10.4444 40.5039 9.60339C40.5039 8.76236 40.7971 8.05973 41.3847 7.49194C41.9711 6.92298 42.6859 6.63672 43.5231 6.63672C43.9398 6.63672 44.3372 6.7207 44.7164 6.87684C45.0944 7.03417 45.4022 7.24709 45.6251 7.50968L45.1187 8.00886C44.7298 7.56055 44.2003 7.33935 43.5231 7.33935C42.9125 7.33935 42.383 7.54754 41.9335 7.96746C41.4889 8.38857 41.266 8.93387 41.266 9.60339C41.266 10.2729 41.4889 10.8229 41.9335 11.244C42.383 11.6592 42.9125 11.8722 43.5231 11.8722C44.1713 11.8722 44.7164 11.6592 45.1465 11.2393C45.43 10.9613 45.5912 10.5781 45.6336 10.0884H43.5231V9.40466H46.3387C46.3726 9.55252 46.3823 9.69565 46.3823 9.83405Z" fill="white" stroke="white" stroke-width="0.116468" stroke-miterlimit="10"/>
<path d="M50.8506 7.46527H48.2058V9.26325H50.5901V9.94696H48.2058V11.7449H50.8506V12.4417H47.457V6.76855H50.8506V7.46527Z" fill="white" stroke="white" stroke-width="0.116468" stroke-miterlimit="10"/>
<path d="M54.0018 12.4417H53.2531V7.46527H51.6309V6.76855H55.6253V7.46527H54.0018V12.4417Z" fill="white" stroke="white" stroke-width="0.116468" stroke-miterlimit="10"/>
<path d="M58.5137 12.4417V6.76855H59.2612V12.4417H58.5137Z" fill="white" stroke="white" stroke-width="0.116468" stroke-miterlimit="10"/>
<path d="M62.578 12.4417H61.8353V7.46527H60.207V6.76855H64.2063V7.46527H62.578V12.4417Z" fill="white" stroke="white" stroke-width="0.116468" stroke-miterlimit="10"/>
<path d="M71.7696 11.7101C71.1966 12.2838 70.4866 12.5701 69.6397 12.5701C68.788 12.5701 68.0781 12.2838 67.505 11.7101C66.9332 11.1376 66.6484 10.435 66.6484 9.60339C66.6484 8.77182 66.9332 8.06919 67.505 7.49667C68.0781 6.92298 68.788 6.63672 69.6397 6.63672C70.4818 6.63672 71.1917 6.92298 71.7648 7.5014C72.3415 8.07865 72.6262 8.77655 72.6262 9.60339C72.6262 10.435 72.3415 11.1376 71.7696 11.7101ZM68.0587 11.2346C68.49 11.6592 69.0146 11.8722 69.6397 11.8722C70.26 11.8722 70.7895 11.6592 71.216 11.2346C71.6461 10.8099 71.8641 10.2646 71.8641 9.60339C71.8641 8.94215 71.6461 8.39685 71.216 7.97219C70.7895 7.54754 70.26 7.33462 69.6397 7.33462C69.0146 7.33462 68.49 7.54754 68.0587 7.97219C67.6286 8.39685 67.4105 8.94215 67.4105 9.60339C67.4105 10.2646 67.6286 10.8099 68.0587 11.2346Z" fill="white" stroke="white" stroke-width="0.116468" stroke-miterlimit="10"/>
<path d="M73.6738 12.4407V6.76758H74.5825L77.4078 11.1797H77.4405L77.4078 10.0891V6.76758H78.1553V12.4407H77.3751L74.4165 7.81088H74.3838L74.4165 8.90623V12.4407H73.6738Z" fill="white" stroke="white" stroke-width="0.116468" stroke-miterlimit="10"/>
<path d="M66.4626 20.7255C64.1861 20.7255 62.3264 22.417 62.3264 24.7508C62.3264 27.0657 64.1861 28.775 66.4626 28.775C68.7439 28.775 70.6037 27.0657 70.6037 24.7508C70.6037 22.417 68.7439 20.7255 66.4626 20.7255ZM66.4626 27.1899C65.2135 27.1899 64.1389 26.1833 64.1389 24.7508C64.1389 23.2994 65.2135 22.3105 66.4626 22.3105C67.7117 22.3105 68.7912 23.2994 68.7912 24.7508C68.7912 26.1833 67.7117 27.1899 66.4626 27.1899ZM57.4378 20.7255C55.1565 20.7255 53.3016 22.417 53.3016 24.7508C53.3016 27.0657 55.1565 28.775 57.4378 28.775C59.7179 28.775 61.574 27.0657 61.574 24.7508C61.574 22.417 59.7179 20.7255 57.4378 20.7255ZM57.4378 27.1899C56.1875 27.1899 55.1092 26.1833 55.1092 24.7508C55.1092 23.2994 56.1875 22.3105 57.4378 22.3105C58.6869 22.3105 59.7615 23.2994 59.7615 24.7508C59.7615 26.1833 58.6869 27.1899 57.4378 27.1899ZM46.6987 21.9592V23.6697H50.8821C50.7598 24.6254 50.4327 25.3281 49.9311 25.8178C49.3205 26.4092 48.3694 27.0657 46.6987 27.0657C44.1241 27.0657 42.1081 25.0371 42.1081 22.5234C42.1081 20.0098 44.1241 17.9812 46.6987 17.9812C48.0907 17.9812 49.1036 18.5123 49.8511 19.2007L51.0857 17.9954C50.0401 17.0207 48.6493 16.2719 46.6987 16.2719C43.1682 16.2719 40.2012 19.0765 40.2012 22.5234C40.2012 25.9704 43.1682 28.775 46.6987 28.775C48.6069 28.775 50.0401 28.1646 51.1669 27.0196C52.3215 25.8923 52.6813 24.3072 52.6813 23.0273C52.6813 22.6299 52.6474 22.2644 52.5868 21.9592H46.6987ZM90.6123 23.2852C90.2719 22.385 89.2214 20.7255 87.0819 20.7255C84.9617 20.7255 83.1964 22.3567 83.1964 24.7508C83.1964 27.0054 84.9435 28.775 87.2854 28.775C89.179 28.775 90.2719 27.6477 90.7213 26.9912L89.3159 26.0768C88.8471 26.7463 88.2086 27.1899 87.2854 27.1899C86.3683 27.1899 85.7104 26.7795 85.2888 25.9704L90.8025 23.743L90.6123 23.2852ZM84.9907 24.6254C84.9435 23.0735 86.2253 22.2786 87.1436 22.2786C87.8633 22.2786 88.4739 22.6299 88.6775 23.1326L84.9907 24.6254ZM80.5092 28.5301H82.3217V16.7013H80.5092V28.5301ZM77.541 21.6221H77.4804C77.0733 21.1513 76.2967 20.7255 75.3129 20.7255C73.2485 20.7255 71.3609 22.4951 71.3609 24.7638C71.3609 27.0196 73.2485 28.775 75.3129 28.775C76.2967 28.775 77.0733 28.3456 77.4804 27.8606H77.541V28.4378C77.541 29.9768 76.6989 30.8036 75.3408 30.8036C74.2334 30.8036 73.5465 30.0229 73.263 29.3664L71.6868 30.0087C72.1411 31.0757 73.3442 32.3887 75.3408 32.3887C77.4658 32.3887 79.2589 31.1679 79.2589 28.1977V20.9703H77.541V21.6221ZM75.468 27.1899C74.2189 27.1899 73.1733 26.1691 73.1733 24.7638C73.1733 23.3455 74.2189 22.3105 75.468 22.3105C76.6989 22.3105 77.6694 23.3455 77.6694 24.7638C77.6694 26.1691 76.6989 27.1899 75.468 27.1899ZM99.0979 16.7013H94.763V28.5301H96.5707V24.0482H99.0979C101.105 24.0482 103.074 22.6299 103.074 20.3741C103.074 18.1196 101.101 16.7013 99.0979 16.7013ZM99.1452 22.4028H96.5707V18.3467H99.1452C100.495 18.3467 101.265 19.4409 101.265 20.3741C101.265 21.2897 100.495 22.4028 99.1452 22.4028ZM110.319 20.703C109.013 20.703 107.655 21.266 107.097 22.514L108.701 23.1705C109.046 22.514 109.681 22.3011 110.352 22.3011C111.29 22.3011 112.241 22.8511 112.255 23.8222V23.9464C111.928 23.7619 111.228 23.4887 110.367 23.4887C108.639 23.4887 106.878 24.4172 106.878 26.1502C106.878 27.7352 108.294 28.756 109.884 28.756C111.101 28.756 111.772 28.2202 112.194 27.5968H112.255V28.5112H114.001V23.9737C114.001 21.8764 112.397 20.703 110.319 20.703ZM110.101 27.1852C109.51 27.1852 108.686 26.8989 108.686 26.1833C108.686 25.2677 109.713 24.9164 110.603 24.9164C111.399 24.9164 111.772 25.0879 112.255 25.3139C112.114 26.4092 111.148 27.1852 110.101 27.1852ZM120.362 20.962L118.284 26.0898H118.222L116.074 20.962H114.125L117.352 28.1279L115.511 32.1154H117.4L122.373 20.962H120.362ZM104.068 28.5301H105.88V16.7013H104.068V28.5301Z" fill="white"/>
<path d="M10.5393 7.27581C10.2546 7.5668 10.0898 8.01984 10.0898 8.60655V29.5341C10.0898 30.1208 10.2546 30.5738 10.5393 30.8648L10.6096 30.9287L22.6208 19.2064V18.9296L10.6096 7.2072L10.5393 7.27581Z" fill="url(#paint0_linear_10187_78629)"/>
<path d="M26.6184 23.1143L22.6191 19.2048V18.928L26.6233 15.0186L26.7129 15.0695L31.4549 17.7038C32.8082 18.4513 32.8082 19.6815 31.4549 20.4338L26.7129 23.0634L26.6184 23.1143Z" fill="url(#paint1_linear_10187_78629)"/>
<path d="M26.7124 23.0633L22.6186 19.0664L10.5371 30.8632C10.9866 31.3246 11.7196 31.3802 12.5531 30.9188L26.7124 23.0633Z" fill="url(#paint2_linear_10187_78629)"/>
<path d="M26.7124 15.0704L12.5531 7.21491C11.7196 6.75832 10.9866 6.81392 10.5371 7.27524L22.6186 19.0674L26.7124 15.0704Z" fill="url(#paint3_linear_10187_78629)"/>
<defs>
<linearGradient id="paint0_linear_10187_78629" x1="21.5544" y1="29.752" x2="5.67767" y2="13.4906" gradientUnits="userSpaceOnUse">
<stop stop-color="#00A0FF"/>
<stop offset="0.0066" stop-color="#00A1FF"/>
<stop offset="0.2601" stop-color="#00BEFF"/>
<stop offset="0.5122" stop-color="#00D2FF"/>
<stop offset="0.7604" stop-color="#00DFFF"/>
<stop offset="1" stop-color="#00E3FF"/>
</linearGradient>
<linearGradient id="paint1_linear_10187_78629" x1="33.2171" y1="19.0651" x2="9.76466" y2="19.0651" gradientUnits="userSpaceOnUse">
<stop stop-color="#FFE000"/>
<stop offset="0.4087" stop-color="#FFBD00"/>
<stop offset="0.7754" stop-color="#FFA500"/>
<stop offset="1" stop-color="#FF9C00"/>
</linearGradient>
<linearGradient id="paint2_linear_10187_78629" x1="24.4863" y1="16.8935" x2="2.95622" y2="-5.15827" gradientUnits="userSpaceOnUse">
<stop stop-color="#FF3A44"/>
<stop offset="1" stop-color="#C31162"/>
</linearGradient>
<linearGradient id="paint3_linear_10187_78629" x1="7.49594" y1="37.8268" x2="17.1101" y2="27.9797" gradientUnits="userSpaceOnUse">
<stop stop-color="#32A071"/>
<stop offset="0.0685" stop-color="#2DA771"/>
<stop offset="0.4762" stop-color="#15CF74"/>
<stop offset="0.8009" stop-color="#06E775"/>
<stop offset="1" stop-color="#00F076"/>
</linearGradient>
</defs>
</svg>
