<svg width="196" height="49" viewBox="0 0 196 49" fill="none" xmlns="http://www.w3.org/2000/svg">
<path fill-rule="evenodd" clip-rule="evenodd" d="M6.04422 25.8057V29.7554H9.88265V32.7164H6.01532V38.7284C6.01532 40.0534 6.74799 40.7024 7.82234 40.7024C8.35952 40.7024 8.98 40.5342 9.48657 40.2794L10.4488 43.2132C9.45937 43.6073 8.64171 43.7789 7.59625 43.8061C4.57548 43.9199 2.59847 42.1974 2.59847 38.7284V32.7164H0.000976562V29.7554H2.59847V26.1709L6.04422 25.8057Z" fill="white"/>
<path fill-rule="evenodd" clip-rule="evenodd" d="M15.8955 25.7871V31.6174C17.1364 30.0102 18.6629 29.5295 20.2456 29.5295C24.1979 29.5295 25.9471 32.2101 25.9471 36.3009V43.638H22.5031V36.3315C22.5031 33.7901 21.1755 32.7181 19.3396 32.7181C17.3082 32.7181 15.8955 34.439 15.8955 36.5268V43.638H12.4531V26.1608L15.8955 25.7871Z" fill="white"/>
<path fill-rule="evenodd" clip-rule="evenodd" d="M31.5405 36.6679C31.5405 39.3197 33.373 40.8996 35.6628 40.8996C41.0839 40.8996 41.0839 32.4634 35.6628 32.4634C33.373 32.4634 31.5405 34.0161 31.5405 36.6679ZM39.7868 29.9968L43.1986 29.7266V43.6364H39.7868L39.7851 41.6063C38.9929 43.2422 36.8205 44.0322 35.265 44.0611C31.1461 44.0882 28.0947 41.5502 28.0947 36.6679C28.0947 31.8705 31.2855 29.3597 35.3534 29.3869C37.2148 29.3869 38.9929 30.2617 39.7851 31.6446L39.7868 29.9968Z" fill="white"/>
<path fill-rule="evenodd" clip-rule="evenodd" d="M49.5525 29.7255V31.336C50.6268 29.6134 52.0667 29.3604 53.4775 29.3604C54.9174 29.3604 56.3029 29.9243 57.0645 30.6854L55.5124 33.6786C54.8052 33.084 54.1558 32.7732 53.0271 32.7732C51.2184 32.7732 49.5525 33.733 49.5525 36.2999V43.6369H46.1084V29.9974L49.5525 29.7255Z" fill="white"/>
<path fill-rule="evenodd" clip-rule="evenodd" d="M61.0456 36.6679C61.0456 39.3197 62.8815 40.8996 65.1679 40.8996C70.5891 40.8996 70.5891 32.4634 65.1679 32.4634C62.8815 32.4634 61.0456 34.0161 61.0456 36.6679ZM69.3005 29.9968L72.7071 29.7266V43.6364H69.3005V41.6063C68.5083 43.2422 66.3273 44.0322 64.7718 44.0611C60.6512 44.0882 57.6016 41.5502 57.6016 36.6679C57.6016 31.8705 60.7923 29.3597 64.8586 29.3869C66.7216 29.3869 68.5083 30.2617 69.3005 31.6446V29.9968Z" fill="white"/>
<path fill-rule="evenodd" clip-rule="evenodd" d="M93.2669 41.8606C91.6554 43.4405 89.9623 44.0623 87.902 44.0623C83.8629 44.0623 80.5039 41.6346 80.5039 36.698C80.5039 31.7596 83.8629 29.332 87.902 29.332C89.8773 29.332 91.4021 29.8978 92.9253 31.3927L90.7527 33.6792C89.9334 32.9436 88.9185 32.5785 87.9581 32.5785C85.6445 32.5785 83.9496 34.2704 83.9496 36.698C83.9496 39.3498 85.755 40.7615 87.902 40.7615C89.0019 40.7615 90.1051 40.4507 90.9517 39.6046L93.2669 41.8606Z" fill="white"/>
<path fill-rule="evenodd" clip-rule="evenodd" d="M97.4732 36.6679C97.4732 39.3197 99.3056 40.8996 101.594 40.8996C107.019 40.8996 107.019 32.4634 101.594 32.4634C99.3056 32.4634 97.4732 34.0161 97.4732 36.6679ZM105.709 29.9968L109.133 29.7266V43.6364H105.709L105.711 41.5994C104.921 43.2354 102.751 44.0322 101.199 44.0611C97.0771 44.0882 94.0273 41.5502 94.0273 36.6679C94.0273 31.8705 97.2181 29.3597 101.284 29.3869C103.147 29.3869 104.918 30.2617 105.709 31.6446V29.9968Z" fill="white"/>
<path fill-rule="evenodd" clip-rule="evenodd" d="M115.504 29.7255V31.336C116.578 29.6134 118 29.3604 119.412 29.3604C120.853 29.3604 122.238 29.9243 122.999 30.6854L121.446 33.6786C120.738 33.084 120.091 32.7732 118.96 32.7732C117.153 32.7732 115.489 33.733 115.489 36.2999V43.6369H112.043V29.9974L115.504 29.7255Z" fill="white"/>
<path fill-rule="evenodd" clip-rule="evenodd" d="M130.027 25.8057V29.7554H133.868V32.7164H130V38.7284C130 40.0534 130.735 40.7024 131.806 40.7024C132.345 40.7024 132.965 40.5342 133.473 40.2794L134.434 43.2132C133.446 43.6073 132.627 43.7789 131.583 43.8061C128.561 43.9199 126.584 42.1974 126.584 38.7284V32.7164H123.988V29.7554H126.584V26.1709L130.027 25.8057Z" fill="white"/>
<path d="M134.193 13.2987C139.143 16.299 144.995 11.6282 144.995 11.6282C139.571 21.4504 134.193 13.2987 134.193 13.2987ZM150.881 8.74428L147.661 8.14077C145.463 7.72909 143.61 6.26126 142.7 4.22225L141.375 1.22624C141.162 0.756366 140.506 0.728337 140.261 1.18313L138.692 4.05627C137.618 6.01554 135.651 7.32603 133.425 7.55665L130.166 7.89504C129.657 7.94678 129.425 8.56537 129.781 8.94042L132.03 11.3156C133.566 12.9409 134.204 15.217 133.736 17.4025L133.05 20.6033C132.942 21.1077 133.46 21.515 133.924 21.2952L136.882 19.892C138.906 18.9329 141.266 19.0299 143.205 20.1507L146.036 21.7909C146.483 22.0496 147.028 21.6853 146.966 21.1766L146.543 17.9285C146.256 15.7127 147.078 13.4969 148.743 12.0032L151.183 9.81768C151.562 9.47281 151.388 8.84127 150.881 8.74428Z" fill="#00EF49"/>
</svg>
